<?xml version="1.0" encoding="UTF-8" standalone="no"?>
<svg width="105px" height="56px" viewBox="0 0 105 56" version="1.1" xmlns="http://www.w3.org/2000/svg" xmlns:xlink="http://www.w3.org/1999/xlink">
    <!-- Generator: Sketch 3.8.3 (29802) - http://www.bohemiancoding.com/sketch -->
    <title>Group</title>
    <desc>Created with Sketch.</desc>
    <defs></defs>
    <g id="Page-1" stroke="none" stroke-width="1" fill="none" fill-rule="evenodd">
        <g id="Group">
            <path d="M48.5408731,4.0264404 C49.6185729,4.85399451 50.2657059,6.12686922 50.2657059,7.81378605 C50.2657059,9.88240626 48.9411616,11.6960274 46.7539443,12.5235815 L46.7539443,12.5871987 C48.4382351,13.0219165 50.3642385,14.3197079 50.8917982,16.6708947 C52.0028553,11.6223375 55.9770014,8.37308752 61.4111741,8.37308752 C63.1288222,8.37308752 64.4164168,8.625966 65.3016701,8.90747224 L65.3016701,0 L38.1025813,0 L38.1025813,2.88186044 C39.277274,2.64329583 41.0421357,2.46728817 42.8413811,2.46728817 C45.5217743,2.46728817 47.2466071,2.94494752 48.5408731,4.0264404" id="Fill-1" fill="#4D1618"></path>
            <path d="M50.5936346,20.2500608 C50.2836676,21.0102866 49.8310337,21.6628934 49.2798672,22.215303 C47.8321573,23.5830734 45.4904697,24.2197758 42.1023869,24.2197758 C40.3560002,24.2197758 39.0006644,24.1063251 38.1025813,23.9865126 L38.1025813,28.0511234 L53.9524654,28.0511234 C51.9864332,26.3292171 50.7352751,23.7076571 50.5936346,20.2500608" id="Fill-2" fill="#1A1C14"></path>
            <path d="M53.4773071,19.5778373 C53.4773071,24.4132768 55.9647408,27.6498033 60.303252,28.1322339 L62.729616,28.1322339 C63.7067305,28.0277956 64.6350918,27.8099066 65.3776783,27.5130262 L65.3776783,11.441724 C64.3949187,11.0255613 63.0944944,10.7308014 61.5790432,10.7308014 C56.7119459,10.7308014 53.4773071,13.9450619 53.4773071,19.5778373" id="Fill-3" fill="#1A1C14"></path>
            <path d="M47.7081088,8.00055149 C47.7081088,5.48661068 45.8595971,4.5000135 43.1489257,4.5000135 C41.9167556,4.5000135 41.2080398,4.59543935 40.7764467,4.69086519 L40.7764467,11.5965153 L43.2099953,11.5965153 C46.0448589,11.5965153 47.7081088,10.0691717 47.7081088,8.00055149" id="Fill-4" fill="#4D1618"></path>
            <path d="M42.9944554,13.8461954 L40.7764467,13.8461954 L40.7764467,22.0247202 C41.2999008,22.1201461 42.0701996,22.1519547 43.02576,22.1519547 C45.7980143,22.1519547 48.3547286,21.1017403 48.3547286,17.9834358 C48.3547286,15.0554529 45.92118,13.8461954 42.9944554,13.8461954" id="Fill-5" fill="#4D1618"></path>
            <path d="M1.29234151,38.6927216 C1.29234151,40.1658624 1.29234151,41.3781346 1.21806901,42.0226338 C1.15865101,42.4676451 1.09923301,42.8205851 0.802143005,42.881966 C0.668452505,42.9126564 0.564471004,42.9280016 0.445635003,42.9280016 C0.252526502,42.9280016 0.222817502,42.9893825 0.222817502,43.0354181 C0.222817502,43.1121442 0.297090002,43.1428347 0.460489503,43.1428347 C0.980397007,43.1428347 1.44088651,43.096799 1.91623051,43.096799 C1.97564851,43.096799 2.39157452,43.1121442 2.82235502,43.1428347 C3.25313552,43.1581799 3.72847953,43.1888703 3.89187903,43.1888703 C6.43199854,43.1888703 7.67977655,41.4855512 7.67977655,39.8436129 C7.67977655,38.0482224 6.20918104,36.958712 5.10994803,36.605772 C5.80810954,35.8538563 6.50627104,35.1019406 6.50627104,33.8436328 C6.50627104,33.0763719 5.97150904,31.5418501 3.53537102,31.5418501 C2.85206402,31.5418501 2.27273852,31.5878858 1.91623051,31.5878858 C1.84195801,31.5878858 0.906124506,31.5418501 0.237672002,31.5418501 C0.0742725005,31.5418501 0,31.5725406 0,31.6646119 C0,31.7259927 0.0594180004,31.7566832 0.193108501,31.7566832 C0.252526502,31.7566832 0.505053003,31.7720284 0.623889004,31.8027188 C1.11408751,31.9101354 1.23292351,32.1556588 1.26263251,32.6773962 C1.29234151,33.1684432 1.29234151,33.5981093 1.29234151,35.9919632 L1.29234151,38.6927216 Z M2.48070152,32.2170397 C2.48070152,32.1249684 2.52526502,32.0789327 2.65895552,32.0482423 C2.89662752,31.9868614 3.20857202,31.9715162 3.37197152,31.9715162 C4.82771253,31.9715162 5.37732904,33.3372406 5.37732904,34.6108937 C5.37732904,35.2400476 5.15451154,35.7924754 4.84256703,36.1607606 C4.53062253,36.5290459 4.32265953,36.5597363 3.49080752,36.5597363 C2.94119102,36.5597363 2.67381002,36.5137006 2.58468302,36.4983554 C2.51041052,36.467665 2.48070152,36.4369746 2.48070152,36.329558 L2.48070152,32.2170397 Z M2.48070152,37.0814737 C2.48070152,37.0047476 2.51041052,36.9740572 2.56982852,36.9740572 C2.79264602,36.9740572 3.53537102,36.9740572 3.72847953,37.0047476 C4.08498753,37.0507833 4.45635003,37.0968189 4.96140303,37.4497589 C6.10519954,38.2630555 6.40228954,39.5980894 6.40228954,40.5188025 C6.40228954,42.252812 5.10994803,42.6978234 4.30780503,42.6978234 C4.04042403,42.6978234 3.40168052,42.6671329 3.00060902,42.4676451 C2.54011952,42.2374668 2.54011952,42.0226338 2.49555602,41.2707181 C2.48070152,41.0405399 2.48070152,39.1377329 2.48070152,37.9561511 L2.48070152,37.0814737 Z M15.0030451,43.3116321 C18.1670536,43.3116321 20.2615381,40.9177781 20.2615381,37.9868415 C20.2615381,34.9024528 18.0185086,33.0917171 15.0773176,33.0917171 C11.4082561,33.0917171 9.87824257,36.1454154 9.87824257,38.1863294 C9.87824257,40.5188025 11.3636926,43.3116321 15.0030451,43.3116321 L15.0030451,43.3116321 Z M15.3744076,42.7898947 C12.8788516,42.7898947 11.2597111,40.7950164 11.2597111,37.7873537 C11.2597111,34.8871076 12.9234151,33.5674189 14.9881906,33.5674189 C17.0232571,33.5674189 18.8652151,35.2860832 18.8652151,38.370472 C18.8652151,42.2681573 16.3696591,42.7898947 15.3744076,42.7898947 L15.3744076,42.7898947 Z M22.9947662,41.2246825 C22.9947662,42.3448834 22.9204937,42.7592042 22.5936947,42.8666208 C22.4005862,42.9280016 22.2371867,42.9280016 22.1332052,42.9280016 C21.9846601,42.9280016 21.9252421,42.9740373 21.9252421,43.0354181 C21.9252421,43.1274895 22.0143692,43.1428347 22.1480597,43.1428347 C22.7868032,43.1428347 23.3364197,43.096799 23.4404012,43.096799 C23.5443827,43.096799 24.0791447,43.1428347 24.8812877,43.1428347 C25.0446872,43.1428347 25.1189597,43.1121442 25.1189597,43.0354181 C25.1189597,42.9740373 25.0595417,42.9280016 24.9407057,42.9280016 C24.8218697,42.9280016 24.5693432,42.9280016 24.3316712,42.8666208 C23.9603087,42.7745494 23.8711817,42.3755738 23.8414727,41.3167538 L23.6483642,35.3167737 C24.0197267,35.7157493 25.5051767,37.311652 27.0500447,38.9689355 C28.3423862,40.273279 30.4071617,42.390919 30.4665797,42.4216094 C31.1944502,43.1274895 31.3429952,43.234906 31.4469767,43.234906 C31.5509582,43.234906 31.5806672,43.1581799 31.5806672,42.390919 L31.6103762,34.6876197 C31.6103762,33.7669067 31.7143577,33.6134545 32.0560112,33.5367284 C32.2194107,33.506038 32.3382467,33.506038 32.4273737,33.4906928 C32.5165007,33.4753476 32.5610642,33.4293119 32.5610642,33.367931 C32.5610642,33.2912049 32.5165007,33.2758597 32.3531012,33.2758597 C31.7737757,33.2758597 31.3132862,33.3218954 31.1647412,33.3218954 C31.0310507,33.3218954 30.4071617,33.2758597 29.7684182,33.2758597 C29.6198732,33.2758597 29.5010372,33.2912049 29.5010372,33.367931 C29.5010372,33.4293119 29.5307462,33.4906928 29.6792912,33.4906928 C29.7832727,33.4906928 30.0060902,33.506038 30.2586167,33.5520736 C30.6596882,33.6594902 30.7488152,33.9357041 30.7636697,34.7643458 L30.9270692,41.1479564 C30.5408522,40.7796712 29.0554022,39.1991137 27.8967512,38.0328772 C25.8171212,35.8385111 23.7523457,33.6594902 23.6186552,33.506038 C23.5146737,33.3986215 23.2621472,33.0917171 23.1581657,33.0917171 C23.0393297,33.0917171 22.9947662,33.2451693 22.9947662,33.720871 C23.0096207,36.2681772 22.9947662,33.9050136 22.9947662,41.2246825 L22.9947662,41.2246825 Z M35.8587632,39.3218755 C35.8587632,40.5648381 35.8736177,41.6083129 35.7844907,42.176086 C35.7399272,42.5136807 35.6508002,42.8359303 35.3982737,42.881966 C35.2794377,42.9126564 35.1754562,42.9280016 35.0566202,42.9280016 C34.9377842,42.9280016 34.8932207,42.9893825 34.8932207,43.0354181 C34.8932207,43.1121442 34.9674932,43.1428347 35.1011837,43.1428347 C35.3240012,43.1428347 35.6805092,43.1121442 35.9627447,43.1121442 C36.2449802,43.096799 36.4380887,43.096799 36.4677977,43.096799 C36.5123612,43.096799 36.9728508,43.1428347 37.5373218,43.1735251 C38.1017928,43.2195608 38.8296633,43.2502512 39.3941343,43.2502512 C41.6520183,43.2502512 42.7809603,42.3448834 43.3602858,41.7464199 C44.0881563,40.979159 44.7714633,39.7055059 44.7714633,38.0789128 C44.7714633,36.5290459 44.1624288,35.4548806 43.5088308,34.7796911 C41.9342538,33.1377528 39.4981158,33.2758597 38.1909198,33.2758597 C37.3590678,33.2758597 36.5866337,33.3218954 36.4826522,33.3218954 C36.4380887,33.3218954 35.5022552,33.2758597 34.8932207,33.2758597 C34.7595302,33.2758597 34.6704032,33.3065502 34.6704032,33.3986215 C34.6704032,33.4446571 34.7446757,33.4906928 34.8189482,33.4906928 C34.9377842,33.4906928 35.1606017,33.506038 35.2497287,33.5213832 C35.6805092,33.6134545 35.7993452,33.8282876 35.8290542,34.2426084 C35.8587632,34.6415841 35.8587632,35.0252145 35.8587632,37.0507833 L35.8587632,39.3218755 Z M37.0768323,36.8052598 C37.0768323,35.8845467 37.0768323,34.5802032 37.0916868,34.1351919 C37.0916868,33.997085 37.1362503,33.9357041 37.2550863,33.8743232 C37.3442133,33.8129423 37.8047028,33.7669067 38.0126658,33.7669067 C39.4832613,33.7669067 40.9390023,33.9203589 42.2016348,35.2247024 C42.7066878,35.7310945 43.4791218,36.7899146 43.4791218,38.5239242 C43.4791218,39.7515416 43.1671773,40.9024329 42.5135793,41.5776225 C41.7411453,42.3755738 40.6419123,42.7745494 39.4238433,42.7745494 C37.8789753,42.7745494 37.4036313,42.4522999 37.2402318,42.1914312 C37.1362503,42.0533242 37.1065413,41.6390033 37.0916868,41.1633016 C37.0916868,40.9331233 37.0768323,39.7361964 37.0768323,38.3551268 L37.0768323,36.8052598 Z M54.7685419,43.3576677 C56.9670079,43.3576677 58.1108044,42.1300503 58.4524579,41.7771103 C59.7745084,42.8666208 60.3835429,43.0814538 61.1411224,43.1428347 C61.6164664,43.1888703 62.2106464,43.1428347 63.0722074,43.1428347 C63.2058979,43.1428347 63.2801704,43.1121442 63.2801704,43.0354181 C63.2801704,42.9433468 63.1761889,42.9280016 63.0424984,42.9280016 C62.5077364,42.9280016 61.7798659,42.6210973 61.3045219,42.3295381 C60.8885959,42.0840147 60.2349979,41.6696938 59.2546009,40.8103616 C59.9081989,39.9817198 60.7251964,38.4318529 60.7251964,37.1888902 C60.7251964,37.035438 60.6806329,36.9126763 60.4578154,36.8819859 C59.6259634,36.7899146 59.0317834,36.7745693 58.6752754,36.7745693 C58.5564394,36.7745693 58.4376034,36.8052598 58.4376034,36.8819859 C58.4376034,36.958712 58.5712939,36.9740572 58.7346934,37.0047476 C58.9278019,37.035438 59.1803284,37.0661285 59.3437279,37.2349259 C59.5665454,37.4651041 59.6259634,37.7566633 59.6259634,37.9868415 C59.6259634,38.9228998 59.2843099,39.9510294 58.8683839,40.5341477 C58.3930399,40.1198268 56.5659364,38.3551268 56.0608834,37.7873537 C54.5160154,36.0533441 53.7138724,35.055905 53.7138724,33.858978 C53.7138724,32.4165275 54.7091239,31.8487545 55.6003939,31.8487545 C56.2391374,31.8487545 56.7293359,32.1249684 57.0858439,32.5239441 C57.4423519,32.9075745 57.5463334,33.367931 57.5463334,33.8282876 C57.5463334,34.0584658 57.5611879,34.1198467 57.6354604,34.1198467 C57.7097329,34.1198467 57.7542964,34.0277754 57.7988599,33.7515615 C57.8582779,33.3525858 57.8879869,32.662051 57.8879869,32.094278 C57.8879869,31.8794449 57.8731324,31.7873736 57.5611879,31.6339214 C57.1898254,31.4497788 56.5362274,31.3270171 55.8974839,31.3270171 C53.9069809,31.3270171 52.7037664,32.9382649 52.7037664,34.1505371 C52.7037664,34.8410719 52.8523114,35.4702258 53.4019279,36.2681772 C52.2432769,36.9740572 51.1588983,38.1709842 51.1588983,39.9663746 C51.1588983,41.3014086 52.1690044,43.3576677 54.7685419,43.3576677 L54.7685419,43.3576677 Z M55.3033039,42.5136807 C53.6395999,42.5136807 52.3769674,41.1633016 52.3769674,39.2451494 C52.3769674,38.017532 52.8523114,37.1888902 53.6247454,36.6671528 C54.0406714,37.2963067 55.0210684,38.4011624 55.4072854,38.8308285 C55.7935024,39.2604946 57.2492434,40.7489807 58.0810954,41.4702059 C57.5760424,42.0072886 56.6847724,42.5136807 55.3033039,42.5136807 L55.3033039,42.5136807 Z M75.089498,43.3576677 C76.040186,43.3576677 77.169128,43.2502512 77.763308,43.0047277 C78.030689,42.881966 78.060398,42.8512755 78.149525,42.5597164 C78.29807,42.037979 78.476324,40.7029451 78.476324,40.5955285 C78.476324,40.4727668 78.446615,40.3653503 78.3723425,40.3653503 C78.2832155,40.3653503 78.2535065,40.4267311 78.2237975,40.5955285 C78.179234,40.8717425 77.9861255,41.546932 77.674181,41.8845268 C77.080001,42.5136807 76.2035855,42.6517877 75.089498,42.6517877 C71.910635,42.6517877 69.7270235,39.9663746 69.7270235,37.035438 C69.7270235,35.4702258 69.97955,34.1045015 71.0639285,33.0303362 C71.583836,32.5085988 72.504815,31.9101354 74.4804635,31.9101354 C75.7876595,31.9101354 76.931456,32.3244562 77.4513635,32.7848128 C77.8375805,33.1224075 78.0752525,33.7515615 78.0752525,34.350025 C78.0752525,34.564858 78.090107,34.6722745 78.1940885,34.6722745 C78.2832155,34.6722745 78.3129245,34.5802032 78.327779,34.350025 C78.3426335,34.1198467 78.3426335,33.2758597 78.3723425,32.7694675 C78.4020515,32.2170397 78.446615,32.0328971 78.446615,31.9101354 C78.446615,31.818064 78.416906,31.7566832 78.3129245,31.741338 C77.763308,31.6646119 77.3028185,31.6185762 76.7383475,31.5111597 C76.010477,31.3730527 75.178625,31.3270171 74.584445,31.3270171 C72.296852,31.3270171 70.9450925,32.0482423 70.0538225,32.9689554 C68.731772,34.3346797 68.3901185,36.1300702 68.3901185,37.1581998 C68.3901185,38.6159955 68.7466265,40.3653503 70.187513,41.7003842 C71.3610185,42.7898947 72.861323,43.3576677 75.089498,43.3576677 L75.089498,43.3576677 Z M85.9481376,39.3986016 C86.0075556,39.3986016 86.0372646,39.429292 86.0669736,39.4753277 L87.2404791,42.5597164 C87.3296061,42.7898947 87.2404791,42.8666208 87.1810611,42.8973112 C87.1216431,42.9126564 87.0770796,42.9586921 87.0770796,43.0047277 C87.0770796,43.0814538 87.1662066,43.096799 87.4484421,43.1121442 C88.4436936,43.1428347 89.5577811,43.1428347 89.7063261,43.1428347 C89.8697256,43.1428347 89.9291436,43.1121442 89.9291436,43.0354181 C89.9291436,42.9586921 89.8548711,42.9280016 89.7508896,42.9280016 C89.6469081,42.9280016 89.4389451,42.9280016 89.2458366,42.8512755 C89.0378736,42.7745494 88.6070931,42.5750616 88.1168946,41.3627894 C87.3296061,39.4446372 85.3093941,34.0891563 85.1014311,33.5827641 C84.9380316,33.153098 84.8786136,33.0917171 84.8043411,33.0917171 C84.7003596,33.0917171 84.6557961,33.1684432 84.4923966,33.6134545 L81.5214966,41.7003842 C81.2689701,42.3448834 81.0164436,42.8512755 80.3777,42.9126564 C80.288573,42.9280016 80.1548825,42.9280016 80.08061,42.9280016 C79.961774,42.9280016 79.902356,42.9740373 79.902356,43.0354181 C79.902356,43.1121442 79.9766285,43.1428347 80.140028,43.1428347 C80.7639171,43.1428347 81.4175151,43.096799 81.5660601,43.096799 C81.7294596,43.096799 82.4127666,43.1428347 82.7395656,43.1428347 C82.8435471,43.1428347 82.9623831,43.1121442 82.9623831,43.0354181 C82.9623831,42.9740373 82.9178196,42.9280016 82.7841291,42.9280016 L82.6801476,42.9280016 C82.3533486,42.9280016 82.1899491,42.8052399 82.1899491,42.529026 C82.1899491,42.2835025 82.2939306,41.8691816 82.4424756,41.4395155 L83.0960736,39.5213633 C83.1257826,39.4446372 83.1703461,39.3986016 83.2446186,39.3986016 L85.9481376,39.3986016 Z M83.3931636,38.8615189 C83.3634546,38.8615189 83.3337456,38.8308285 83.3634546,38.7694476 L84.4775421,35.3781545 C84.5518146,35.1633215 84.5666691,35.1633215 84.6409416,35.3781545 L85.8144471,38.7694476 C85.8293016,38.8154833 85.8293016,38.8615189 85.7698836,38.8615189 L83.3931636,38.8615189 Z M92.9594616,37.0507833 C92.9594616,35.0252145 92.9446071,34.6876197 92.9743161,34.2732989 C93.0040251,33.8282876 93.0931521,33.5827641 93.5090781,33.5213832 C93.6576231,33.506038 93.8061681,33.4906928 93.9101496,33.4906928 C93.9992766,33.4906928 94.0735491,33.4446571 94.0735491,33.3832762 C94.0735491,33.3218954 94.0289856,33.2758597 93.8804406,33.2758597 C93.4645146,33.2758597 92.5583901,33.3218954 92.3504271,33.3218954 C92.3207181,33.3218954 91.4294481,33.2758597 90.8055591,33.2758597 C90.6570141,33.2758597 90.5827416,33.3065502 90.5827416,33.3832762 C90.5827416,33.4446571 90.6421596,33.4906928 90.7461411,33.4906928 C90.8649771,33.4906928 91.0283766,33.4906928 91.1175036,33.506038 C91.6225566,33.5674189 91.6819746,33.8436328 91.7116836,34.2732989 C91.7413926,34.6876197 91.7413926,35.0252145 91.7413926,37.0507833 L91.7413926,39.3525659 C91.7413926,40.5341477 91.7711016,41.5929677 91.6819746,42.176086 C91.6374111,42.5443712 91.5482841,42.8512755 91.2957576,42.8973112 C91.1769216,42.9280016 91.0580856,42.9280016 90.9392496,42.9280016 C90.8204136,42.9280016 90.7758501,42.9740373 90.7758501,43.0200729 C90.7758501,43.1121442 90.8649771,43.1428347 91.0135221,43.1428347 C91.5334296,43.1428347 91.8305196,43.096799 92.3207181,43.096799 C93.8061681,43.096799 94.9202556,43.1735251 95.9303617,43.1735251 C96.6433777,43.1735251 96.6285232,43.096799 96.7176502,42.7898947 C96.8067772,42.4369547 96.8959042,41.5622773 96.8959042,41.4088251 C96.8959042,41.2553729 96.8661952,41.2093372 96.8067772,41.2093372 C96.7325047,41.2093372 96.7027957,41.2707181 96.6879412,41.3934799 C96.6582322,41.6236581 96.5542507,41.9305625 96.4057057,42.1607407 C96.0789067,42.5904068 95.4847267,42.5904068 94.8311286,42.5904068 C93.8061681,42.5904068 93.5090781,42.4983355 93.2714061,42.2835025 C93.0188796,42.037979 92.9594616,41.1479564 92.9594616,39.3832563 L92.9594616,37.0507833 Z M100.74322,37.0507833 C100.74322,35.0252145 100.728365,34.6876197 100.758074,34.2732989 C100.787783,33.8282876 100.87691,33.5827641 101.292836,33.5213832 C101.441381,33.506038 101.589926,33.4906928 101.693908,33.4906928 C101.783035,33.4906928 101.857307,33.4446571 101.857307,33.3832762 C101.857307,33.3218954 101.812744,33.2758597 101.664199,33.2758597 C101.248273,33.2758597 100.342148,33.3218954 100.134185,33.3218954 C100.104476,33.3218954 99.2132062,33.2758597 98.5893172,33.2758597 C98.4407722,33.2758597 98.3664997,33.3065502 98.3664997,33.3832762 C98.3664997,33.4446571 98.4259177,33.4906928 98.5298992,33.4906928 C98.6487352,33.4906928 98.8121347,33.4906928 98.9012617,33.506038 C99.4063147,33.5674189 99.4657327,33.8436328 99.4954417,34.2732989 C99.5251507,34.6876197 99.5251507,35.0252145 99.5251507,37.0507833 L99.5251507,39.3525659 C99.5251507,40.5341477 99.5548597,41.5929677 99.4657327,42.176086 C99.4211692,42.5443712 99.3320422,42.8512755 99.0795157,42.8973112 C98.9606797,42.9280016 98.8418437,42.9280016 98.7230077,42.9280016 C98.6041717,42.9280016 98.5596082,42.9740373 98.5596082,43.0200729 C98.5596082,43.1121442 98.6487352,43.1428347 98.7972802,43.1428347 C99.3171877,43.1428347 99.6142777,43.096799 100.104476,43.096799 C101.589926,43.096799 102.704014,43.1735251 103.71412,43.1735251 C104.427136,43.1735251 104.412281,43.096799 104.501408,42.7898947 C104.590535,42.4369547 104.679662,41.5622773 104.679662,41.4088251 C104.679662,41.2553729 104.649953,41.2093372 104.590535,41.2093372 C104.516263,41.2093372 104.486554,41.2707181 104.471699,41.3934799 C104.44199,41.6236581 104.338009,41.9305625 104.189464,42.1607407 C103.862665,42.5904068 103.268485,42.5904068 102.614887,42.5904068 C101.589926,42.5904068 101.292836,42.4983355 101.055164,42.2835025 C100.802638,42.037979 100.74322,41.1479564 100.74322,39.3832563 L100.74322,37.0507833 Z" id="Bond-&amp;-Call" fill="#1A1C14"></path>
            <path d="M16.1923793,53.6930082 C16.2280488,53.6930082 16.2423167,53.7077474 16.2565845,53.7372257 L16.9200382,55.5501421 C16.9628416,55.6680553 16.9200382,55.7343815 16.8772347,55.7491207 C16.8486991,55.7564903 16.8272973,55.7712294 16.8272973,55.8007077 C16.8272973,55.8449252 16.9057703,55.8449252 17.0413146,55.8522948 C17.5335545,55.867034 18.0543299,55.867034 18.1613386,55.867034 C18.2398116,55.867034 18.3040168,55.8522948 18.3040168,55.8080773 C18.3040168,55.7712294 18.2683472,55.7638599 18.2255438,55.7638599 C18.1684725,55.7638599 18.0543299,55.7564903 17.9473213,55.7196424 C17.7975091,55.6754249 17.5906257,55.5575116 17.333805,54.9016191 C16.8986364,53.7814432 15.7786125,50.7378071 15.6716038,50.4577631 C15.5859969,50.2293062 15.5574613,50.1924583 15.5146578,50.1924583 C15.4718543,50.1924583 15.4433187,50.2366758 15.3577118,50.4798719 L13.7383141,55.0563803 C13.6099037,55.4248592 13.4672255,55.7049032 13.1390656,55.7491207 C13.0819943,55.7564903 13.0177891,55.7638599 12.9678518,55.7638599 C12.9036466,55.7638599 12.867977,55.778599 12.867977,55.8080773 C12.867977,55.8522948 12.9107805,55.867034 13.0035213,55.867034 C13.3388151,55.867034 13.7311802,55.8449252 13.8096532,55.8449252 C13.8881262,55.8449252 14.1734826,55.867034 14.3446965,55.867034 C14.4089017,55.867034 14.4731069,55.8522948 14.4731069,55.8080773 C14.4731069,55.778599 14.4517051,55.7638599 14.380366,55.7638599 L14.3161608,55.7638599 C14.1948844,55.7638599 14.0593401,55.6975336 14.0593401,55.5501421 C14.0593401,55.4174897 14.0950096,55.2406198 14.1592148,55.0563803 L14.5872494,53.7519649 C14.6015173,53.715117 14.622919,53.6930082 14.6585885,53.6930082 L16.1923793,53.6930082 Z M14.7370616,53.4277034 C14.7156598,53.4277034 14.701392,53.4129642 14.7156598,53.3761163 L15.3434439,51.3863301 C15.3791135,51.2757864 15.4147831,51.2757864 15.4504526,51.3863301 L16.1281741,53.3761163 C16.135308,53.4055947 16.135308,53.4277034 16.0996385,53.4277034 L14.7370616,53.4277034 Z M19.8489139,50.6125243 C20.1485381,50.6198939 20.4481623,50.6198939 20.7477866,50.6272635 C21.432642,50.6420026 21.6038558,50.8115029 21.6252576,51.0325903 C21.6252576,51.0620686 21.6323915,51.0841773 21.6323915,51.1136557 C21.6395254,51.2168298 21.6537932,51.2389385 21.6894628,51.2389385 C21.7179984,51.2389385 21.7394001,51.2094602 21.7394001,51.143134 C21.7394001,51.0620686 21.7608019,50.5535677 21.7608019,50.3324803 C21.7608019,50.2882628 21.7608019,50.2440454 21.7251323,50.2440454 C21.6965967,50.2440454 21.6323915,50.2661541 21.5253828,50.2808933 C21.4112403,50.303002 21.2471603,50.3177412 21.0188752,50.3177412 L18.3436588,50.3177412 C18.2580518,50.3177412 17.9869632,50.303002 17.7800798,50.2808933 C17.5874643,50.2661541 17.5161252,50.1924583 17.4661878,50.1924583 C17.4376521,50.1924583 17.4091165,50.2882628 17.3948487,50.3324803 C17.3805809,50.3914369 17.2379026,51.0252207 17.2379026,51.0989165 C17.2379026,51.143134 17.2521705,51.1652427 17.2735722,51.1652427 C17.3021078,51.1652427 17.3235096,51.1505036 17.3449113,51.0915469 C17.366313,51.0399599 17.3877148,50.9883728 17.4661878,50.86309 C17.5803303,50.6862201 17.7515442,50.634633 18.1938466,50.6272635 C18.5434083,50.6198939 18.9001038,50.6198939 19.2496654,50.6125243 L19.2496654,53.7298561 C19.2496654,54.4373357 19.2496654,55.0195324 19.2139958,55.3290547 C19.1854602,55.5427725 19.1497906,55.7049032 19.0071124,55.7343815 C18.9429072,55.7491207 18.8573003,55.7638599 18.7930951,55.7638599 C18.7502917,55.7638599 18.7360238,55.7859686 18.7360238,55.8080773 C18.7360238,55.8522948 18.7716934,55.867034 18.8501664,55.867034 C19.0641837,55.867034 19.5136201,55.8449252 19.5492896,55.8449252 C19.5849592,55.8449252 20.0343955,55.867034 20.4267606,55.867034 C20.5052336,55.867034 20.5409032,55.8449252 20.5409032,55.8080773 C20.5409032,55.7859686 20.5266354,55.7638599 20.4838319,55.7638599 C20.4196267,55.7638599 20.2626807,55.7491207 20.1628059,55.7343815 C19.9487886,55.7049032 19.9059852,55.5427725 19.8845834,55.3290547 C19.8489139,55.0195324 19.8489139,54.4373357 19.8489139,53.7298561 L19.8489139,50.6125243 Z M24.9679001,50.6125243 C25.2675243,50.6198939 25.5671486,50.6198939 25.8667728,50.6272635 C26.5516282,50.6420026 26.7228421,50.8115029 26.7442438,51.0325903 C26.7442438,51.0620686 26.7513777,51.0841773 26.7513777,51.1136557 C26.7585116,51.2168298 26.7727794,51.2389385 26.808449,51.2389385 C26.8369846,51.2389385 26.8583864,51.2094602 26.8583864,51.143134 C26.8583864,51.0620686 26.8797881,50.5535677 26.8797881,50.3324803 C26.8797881,50.2882628 26.8797881,50.2440454 26.8441185,50.2440454 C26.8155829,50.2440454 26.7513777,50.2661541 26.644369,50.2808933 C26.5302265,50.303002 26.3661465,50.3177412 26.1378614,50.3177412 L23.462645,50.3177412 C23.3770381,50.3177412 23.1059495,50.303002 22.8990661,50.2808933 C22.7064505,50.2661541 22.6351114,50.1924583 22.585174,50.1924583 C22.5566384,50.1924583 22.5281027,50.2882628 22.5138349,50.3324803 C22.4995671,50.3914369 22.3568889,51.0252207 22.3568889,51.0989165 C22.3568889,51.143134 22.3711567,51.1652427 22.3925584,51.1652427 C22.4210941,51.1652427 22.4424958,51.1505036 22.4638975,51.0915469 C22.4852993,51.0399599 22.506701,50.9883728 22.585174,50.86309 C22.6993166,50.6862201 22.8705304,50.634633 23.3128329,50.6272635 C23.6623945,50.6198939 24.01909,50.6198939 24.3686516,50.6125243 L24.3686516,53.7298561 C24.3686516,54.4373357 24.3686516,55.0195324 24.3329821,55.3290547 C24.3044464,55.5427725 24.2687769,55.7049032 24.1260987,55.7343815 C24.0618935,55.7491207 23.9762865,55.7638599 23.9120813,55.7638599 C23.8692779,55.7638599 23.8550101,55.7859686 23.8550101,55.8080773 C23.8550101,55.8522948 23.8906796,55.867034 23.9691526,55.867034 C24.1831699,55.867034 24.6326063,55.8449252 24.6682759,55.8449252 C24.7039454,55.8449252 25.1533818,55.867034 25.5457468,55.867034 C25.6242199,55.867034 25.6598894,55.8449252 25.6598894,55.8080773 C25.6598894,55.7859686 25.6456216,55.7638599 25.6028181,55.7638599 C25.5386129,55.7638599 25.3816669,55.7491207 25.2817921,55.7343815 C25.0677748,55.7049032 25.0249714,55.5427725 25.0035696,55.3290547 C24.9679001,55.0195324 24.9679001,54.4373357 24.9679001,53.7298561 L24.9679001,50.6125243 Z M30.0654846,55.9702081 C31.784757,55.9702081 32.9119148,54.606836 32.9119148,52.9560503 C32.9119148,51.2389385 31.7134179,50.1924583 30.108288,50.1924583 C28.1393288,50.1924583 27.2975273,51.8800918 27.2975273,53.0739636 C27.2975273,54.4004878 28.1107931,55.9702081 30.0654846,55.9702081 L30.0654846,55.9702081 Z M30.2581002,55.6901641 C28.9739963,55.6901641 27.9752488,54.5847273 27.9752488,52.8676154 C27.9752488,51.2536777 28.8669876,50.443024 30.0583507,50.443024 C31.1855085,50.443024 32.2270594,51.3936997 32.2270594,53.1623986 C32.2270594,55.306946 30.9001521,55.6901641 30.2581002,55.6901641 L30.2581002,55.6901641 Z M34.4282763,53.7298561 C34.4282763,54.4373357 34.4282763,55.0195324 34.3926067,55.3290547 C34.3640711,55.5427725 34.3284015,55.7049032 34.1857233,55.7343815 C34.1215181,55.7491207 34.0359112,55.7638599 33.971706,55.7638599 C33.9289026,55.7638599 33.9146347,55.7859686 33.9146347,55.8080773 C33.9146347,55.8522948 33.9503043,55.867034 34.0287773,55.867034 C34.2427946,55.867034 34.692231,55.8449252 34.6993649,55.8449252 C34.7350344,55.8449252 35.1844708,55.867034 35.5768359,55.867034 C35.6553089,55.867034 35.6909784,55.8449252 35.6909784,55.8080773 C35.6909784,55.7859686 35.6767106,55.7638599 35.6339072,55.7638599 C35.569702,55.7638599 35.4127559,55.7491207 35.3128812,55.7343815 C35.0988639,55.7049032 35.0560604,55.5427725 35.0346587,55.3290547 C34.9989891,55.0195324 34.9989891,54.4373357 34.9989891,53.7298561 L34.9989891,53.5529862 C34.9989891,53.5161383 35.0132569,53.4940296 35.0489265,53.4940296 L35.9263975,53.5087688 C35.9692009,53.5087688 35.9906027,53.5235079 36.0191383,53.5529862 C36.1618165,53.7445953 36.4971103,54.2383571 36.7967346,54.6436839 C37.2033675,55.1964023 37.4530543,55.5575116 37.7598125,55.727012 C37.9452941,55.8301861 38.1236419,55.867034 38.5231409,55.867034 L39.0296485,55.867034 C39.1580589,55.867034 39.2008624,55.8522948 39.2008624,55.8080773 C39.2008624,55.7859686 39.1723267,55.7638599 39.1366572,55.7638599 C39.0938537,55.7638599 38.993979,55.7638599 38.8584347,55.7417511 C38.6800869,55.7122728 38.3733288,55.6312074 37.9880976,55.2111414 C37.5743308,54.7542276 37.0892249,54.0983351 36.5042442,53.3245293 C37.1462962,52.7128542 37.3674474,52.1675054 37.3674474,51.6221566 C37.3674474,51.1136557 37.0535553,50.7525463 36.8752076,50.6198939 C36.4971103,50.3398499 36.0191383,50.2956324 35.569702,50.2956324 C35.3485507,50.2956324 34.8063735,50.3177412 34.7279005,50.3177412 C34.692231,50.3177412 34.2427946,50.2956324 33.9217687,50.2956324 C33.8432956,50.2956324 33.8076261,50.3103716 33.8076261,50.354589 C33.8076261,50.3840674 33.8361617,50.3988065 33.8646974,50.3988065 C33.9289026,50.3988065 34.050179,50.4061761 34.1072503,50.4209153 C34.3426694,50.4725023 34.3997407,50.5904156 34.4140085,50.8409812 C34.4282763,51.0768078 34.4282763,51.283156 34.4282763,52.4328103 L34.4282763,53.7298561 Z M34.9989891,50.6641114 C34.9989891,50.6198939 35.0203909,50.5904156 35.0560604,50.5756764 C35.1273995,50.5535677 35.3200151,50.5314589 35.5340324,50.5314589 C36.2973608,50.5314589 36.7681989,51.0841773 36.7681989,52.0053747 C36.7681989,52.5654627 36.5827172,52.9634199 36.3330304,53.1402898 C36.1689504,53.2582031 35.9692009,53.2803118 35.7979871,53.2803118 C35.484095,53.2803118 35.1559352,53.2287248 35.0489265,53.1623986 C35.0132569,53.1402898 34.9989891,53.1108115 34.9989891,53.0739636 L34.9989891,50.6641114 Z M39.5715178,54.7837059 C39.5715178,55.4543375 39.5358483,55.6680553 39.3575005,55.7196424 C39.2504918,55.7564903 39.1220814,55.7638599 39.0650102,55.7638599 C39.0293406,55.7638599 39.0079389,55.778599 39.0079389,55.8080773 C39.0079389,55.8596644 39.0507423,55.867034 39.1220814,55.867034 C39.4431074,55.867034 39.7427317,55.8449252 39.8069369,55.8449252 C39.871142,55.8449252 40.1564985,55.867034 40.5631314,55.867034 C40.6487383,55.867034 40.6915417,55.8522948 40.6915417,55.8080773 C40.6915417,55.778599 40.67014,55.7638599 40.6344705,55.7638599 C40.5702653,55.7638599 40.4133192,55.7564903 40.2777749,55.7196424 C40.0851594,55.6606858 40.0138203,55.4690767 39.9995524,54.8647712 L39.9068116,51.334743 C40.1350967,51.6000479 40.9412286,52.5286148 41.7687622,53.4498121 C42.5249567,54.2899441 43.5522398,55.3732722 43.6307129,55.446968 C44.0088101,55.8375556 44.094417,55.918621 44.1514883,55.918621 C44.2014257,55.918621 44.2156935,55.8817731 44.2156935,55.3953809 L44.2299613,51.0915469 C44.2299613,50.583046 44.2798987,50.4725023 44.4796482,50.4282848 C44.5652551,50.4135457 44.6080586,50.4061761 44.6651299,50.3988065 C44.7150672,50.3914369 44.7436029,50.3766978 44.7436029,50.3472195 C44.7436029,50.303002 44.6936655,50.2956324 44.6151925,50.2956324 C44.3227022,50.2956324 44.0872831,50.3177412 44.0088101,50.3177412 C43.9303371,50.3177412 43.5879094,50.2956324 43.2668834,50.2956324 C43.1812765,50.2956324 43.1242052,50.303002 43.1242052,50.3472195 C43.1242052,50.3766978 43.1456069,50.3988065 43.22408,50.3988065 C43.2882851,50.3988065 43.4024277,50.4061761 43.5308381,50.4356544 C43.7519893,50.494611 43.8019267,50.6567418 43.8090606,51.1357644 L43.8875336,54.8795104 C43.6592485,54.6363143 42.8816523,53.7372257 42.1753951,52.9560503 C41.0767729,51.7400699 40.0138203,50.5535677 39.9068116,50.4282848 C39.8354725,50.354589 39.714196,50.1924583 39.6571247,50.1924583 C39.6000534,50.1924583 39.5786517,50.2735237 39.5786517,50.5609373 C39.5857856,51.9906355 39.5715178,51.0325903 39.5715178,53.6930082 L39.5715178,54.7837059 Z M46.5624421,53.7298561 C46.5624421,54.3857486 46.5553082,54.7615971 46.5481743,55.0490107 C46.5339065,55.6017291 46.4411657,55.7049032 46.2913535,55.7417511 C46.2414162,55.7564903 46.1986127,55.7564903 46.1272736,55.7638599 C46.0844701,55.7712294 46.0488006,55.7859686 46.0488006,55.8080773 C46.0488006,55.8522948 46.0844701,55.867034 46.1629431,55.867034 C46.3484248,55.8744035 46.5196387,55.8449252 46.6908525,55.8449252 C46.969075,55.8449252 47.2972349,55.8596644 47.5825913,55.867034 C47.8608138,55.8744035 48.0962329,55.8891427 48.6241422,55.8891427 C48.9023648,55.8891427 48.959436,55.8891427 49.0093734,55.6975336 C49.045043,55.5427725 49.1021142,55.0416411 49.1021142,54.9826845 C49.1021142,54.9310975 49.1021142,54.8721408 49.0593108,54.8721408 C49.0236412,54.8721408 49.0093734,54.9016191 48.9951056,54.9826845 C48.9380343,55.2995764 48.8595613,55.4543375 48.6312762,55.5280333 C48.4386606,55.58699 48.2032415,55.5943595 47.9892242,55.5943595 C47.7110017,55.5943595 47.5183861,55.5796204 47.3971097,55.5280333 C47.2187619,55.4543375 47.1759584,55.2922068 47.1616906,54.9900541 C47.1545567,54.8352929 47.1616906,53.9804218 47.1616906,53.7298561 L47.1616906,53.0813332 C47.1616906,53.0518549 47.1759584,53.0297461 47.211628,53.0297461 C47.3329045,53.0297461 48.0391616,53.0444853 48.2317772,53.066594 C48.4885979,53.0960723 48.5742049,53.1992464 48.6027405,53.3097901 C48.6241422,53.3761163 48.6312762,53.4498121 48.6312762,53.5161383 C48.6312762,53.575095 48.6384101,53.6340516 48.6812135,53.6340516 C48.7097492,53.6340516 48.724017,53.5972037 48.7311509,53.5235079 C48.7382848,53.4203338 48.7382848,53.2508335 48.7596865,53.0223766 C48.7810883,52.7791805 48.8167578,52.6538976 48.8167578,52.6096801 C48.8167578,52.5654627 48.80249,52.5507235 48.7810883,52.5507235 C48.7525526,52.5507235 48.7311509,52.5802018 48.6954814,52.6244193 C48.6241422,52.7128542 48.5314014,52.734963 48.3387858,52.7497021 C48.1747059,52.7644413 47.2972349,52.7644413 47.2044941,52.7644413 C47.1688245,52.7644413 47.1616906,52.7423326 47.1616906,52.6907455 L47.1616906,50.6567418 C47.1616906,50.6051547 47.1759584,50.583046 47.2044941,50.583046 C47.2829671,50.583046 48.0605633,50.5904156 48.1818398,50.6051547 C48.4957319,50.634633 48.645544,50.7083288 48.6954814,50.8778291 C48.7168831,50.9367858 48.7311509,51.0252207 48.7311509,51.1210252 C48.7311509,51.1799819 48.7454187,51.2168298 48.7882222,51.2168298 C48.8167578,51.2168298 48.8381596,51.1652427 48.8452935,51.0915469 C48.8595613,50.8999379 48.8666952,50.7599159 48.8738291,50.6493722 C48.8880969,50.443024 48.9309004,50.354589 48.9309004,50.303002 C48.9309004,50.2661541 48.9237665,50.2366758 48.9023648,50.2366758 C48.880963,50.2366758 48.8666952,50.2440454 48.8238917,50.2661541 C48.7810883,50.2882628 48.6526779,50.303002 48.4957319,50.3103716 C48.3316519,50.3177412 46.9120037,50.3177412 46.8620664,50.3177412 C46.41263,50.2956324 46.2200144,50.2956324 46.0559345,50.2956324 C45.9774615,50.2956324 45.9417919,50.3103716 45.9417919,50.354589 C45.9417919,50.3840674 45.9845954,50.3914369 46.0345328,50.3988065 C46.0987379,50.4061761 46.1914788,50.4061761 46.2414162,50.4209153 C46.4768352,50.4725023 46.5339065,50.5904156 46.5481743,50.8409812 C46.5624421,51.0768078 46.5624421,51.283156 46.5624421,52.4328103 L46.5624421,53.7298561 Z M51.9097135,54.5920968 C51.9097135,54.7100101 51.9097135,55.0195324 51.8883118,55.3290547 C51.8740439,55.5427725 51.8098387,55.7049032 51.6671605,55.7343815 C51.6029553,55.7491207 51.5173484,55.7638599 51.4531432,55.7638599 C51.4103398,55.7638599 51.3960719,55.7859686 51.3960719,55.8080773 C51.3960719,55.8522948 51.4317415,55.867034 51.5102145,55.867034 C51.7242318,55.867034 52.1736682,55.8449252 52.2093377,55.8449252 C52.2450073,55.8449252 52.6944436,55.867034 53.0868087,55.867034 C53.1652817,55.867034 53.2009513,55.8449252 53.2009513,55.8080773 C53.2009513,55.7859686 53.1866835,55.7638599 53.14388,55.7638599 C53.0796748,55.7638599 52.9227288,55.7491207 52.822854,55.7343815 C52.6088367,55.7049032 52.5446315,55.5427725 52.5303637,55.3290547 C52.508962,55.0195324 52.508962,54.7100101 52.508962,54.5920968 L52.508962,53.9583131 C52.508962,53.715117 52.508962,53.48666 52.6159706,53.2213552 C52.744381,52.9044633 53.7431285,51.1726123 53.9785475,50.8778291 C54.1354935,50.6788505 54.2139666,50.5904156 54.3566448,50.5019806 C54.4707873,50.4282848 54.6063316,50.3988065 54.6848046,50.3988065 C54.7418759,50.3988065 54.7775455,50.3766978 54.7775455,50.3398499 C54.7775455,50.3103716 54.734742,50.2956324 54.6848046,50.2956324 C54.5492603,50.2956324 54.0356188,50.3177412 53.9928153,50.3177412 C53.935744,50.3177412 53.7074589,50.2956324 53.5219772,50.2956324 C53.4506381,50.2956324 53.4078347,50.3103716 53.4078347,50.3398499 C53.4078347,50.3766978 53.4506381,50.3914369 53.5148433,50.4135457 C53.6004503,50.4356544 53.6289859,50.5167198 53.6289859,50.6198939 C53.6289859,50.7156984 53.6004503,50.8409812 53.5077094,50.9957424 C53.3650312,51.2389385 52.4590246,52.8528762 52.3234803,53.1623986 C52.1950699,52.9486808 51.1249833,51.0473294 51.0108408,50.8336117 C50.9537695,50.723068 50.9180999,50.634633 50.9180999,50.5461981 C50.9180999,50.4872415 50.9537695,50.443024 51.0108408,50.4135457 C51.075046,50.3840674 51.1178494,50.3766978 51.1178494,50.3472195 C51.1178494,50.3177412 51.1035816,50.2956324 51.0251086,50.2956324 C50.7468861,50.2956324 50.4757975,50.3177412 50.4258601,50.3177412 C50.3901906,50.3177412 49.8551473,50.2956324 49.719603,50.2956324 C49.6553978,50.2956324 49.6268621,50.3177412 49.6268621,50.3472195 C49.6268621,50.3840674 49.6625317,50.3988065 49.6982012,50.3988065 C49.7624064,50.3988065 49.8979507,50.443024 50.0049594,50.5167198 C50.1333698,50.6051547 50.3117175,50.7893942 50.4900653,51.0620686 C50.7397522,51.4452867 51.6956962,53.066594 51.7456335,53.1845073 C51.8383744,53.3982251 51.9097135,53.5603558 51.9097135,53.9583131 L51.9097135,54.5920968 Z M56.253957,55.9702081 C56.6391882,55.9702081 57.0244194,55.8817731 57.3311775,55.6606858 C57.8234173,55.2995764 57.9375599,54.7394884 57.9375599,54.4373357 C57.9375599,53.8477694 57.7378104,53.3908555 56.896009,52.7054847 L56.6962595,52.5433539 C56.0114041,51.9906355 55.8259224,51.7253307 55.8259224,51.3052647 C55.8259224,50.7672855 56.2111536,50.4503936 56.7033934,50.4503936 C57.3597131,50.4503936 57.5523287,50.7599159 57.5951322,50.8409812 C57.6379357,50.9220466 57.6807391,51.1210252 57.687873,51.2094602 C57.6950069,51.2684168 57.7021408,51.3052647 57.7449443,51.3052647 C57.7806139,51.3052647 57.7948817,51.2536777 57.7948817,51.1357644 C57.7948817,50.634633 57.8234173,50.3914369 57.8234173,50.354589 C57.8234173,50.3177412 57.8091495,50.303002 57.7520782,50.303002 C57.6950069,50.303002 57.6379357,50.2956324 57.5023914,50.2661541 C57.3240436,50.2219366 57.1171602,50.1924583 56.8389377,50.1924583 C55.9329311,50.1924583 55.3622182,50.7304376 55.3622182,51.5189825 C55.3622182,52.0201138 55.5334321,52.4770277 56.2896266,53.1181811 L56.6106526,53.3908555 C57.2241688,53.9140956 57.4310523,54.2088787 57.4310523,54.7173797 C57.4310523,55.1890327 57.0957585,55.6975336 56.4109031,55.6975336 C55.9329311,55.6975336 55.462093,55.4911854 55.3550843,54.9458366 C55.3336826,54.8426625 55.3336826,54.7394884 55.3336826,54.6731622 C55.3336826,54.6142056 55.3265487,54.5920968 55.2837452,54.5920968 C55.2480757,54.5920968 55.2338078,54.6289447 55.2266739,54.7100101 C55.21954,54.8279234 55.1910044,55.1227065 55.1910044,55.4911854 C55.1910044,55.6901641 55.1981383,55.7196424 55.298013,55.7712294 C55.5905034,55.918621 55.9186632,55.9702081 56.253957,55.9702081 L56.253957,55.9702081 Z M64.0007679,53.6930082 C64.0364375,53.6930082 64.0507053,53.7077474 64.0649731,53.7372257 L64.7284268,55.5501421 C64.7712303,55.6680553 64.7284268,55.7343815 64.6856233,55.7491207 C64.6570877,55.7564903 64.635686,55.7712294 64.635686,55.8007077 C64.635686,55.8449252 64.714159,55.8449252 64.8497033,55.8522948 C65.3419431,55.867034 65.8627186,55.867034 65.9697272,55.867034 C66.0482002,55.867034 66.1124054,55.8522948 66.1124054,55.8080773 C66.1124054,55.7712294 66.0767359,55.7638599 66.0339324,55.7638599 C65.9768611,55.7638599 65.8627186,55.7564903 65.7557099,55.7196424 C65.6058978,55.6754249 65.3990144,55.5575116 65.1421936,54.9016191 C64.7070251,53.7814432 63.5870011,50.7378071 63.4799925,50.4577631 C63.3943856,50.2293062 63.3658499,50.1924583 63.3230465,50.1924583 C63.280243,50.1924583 63.2517073,50.2366758 63.1661004,50.4798719 L61.5467027,55.0563803 C61.4182924,55.4248592 61.2756142,55.7049032 60.9474543,55.7491207 C60.890383,55.7564903 60.8261778,55.7638599 60.7762404,55.7638599 C60.7120352,55.7638599 60.6763657,55.778599 60.6763657,55.8080773 C60.6763657,55.8522948 60.7191691,55.867034 60.81191,55.867034 C61.1472038,55.867034 61.5395688,55.8449252 61.6180419,55.8449252 C61.6965149,55.8449252 61.9818713,55.867034 62.1530851,55.867034 C62.2172903,55.867034 62.2814955,55.8522948 62.2814955,55.8080773 C62.2814955,55.778599 62.2600938,55.7638599 62.1887547,55.7638599 L62.1245495,55.7638599 C62.003273,55.7638599 61.8677287,55.6975336 61.8677287,55.5501421 C61.8677287,55.4174897 61.9033983,55.2406198 61.9676035,55.0563803 L62.3956381,53.7519649 C62.4099059,53.715117 62.4313076,53.6930082 62.4669772,53.6930082 L64.0007679,53.6930082 Z M62.5454502,53.4277034 C62.5240485,53.4277034 62.5097807,53.4129642 62.5240485,53.3761163 L63.1518326,51.3863301 C63.1875022,51.2757864 63.2231717,51.2757864 63.2588413,51.3863301 L63.9365627,53.3761163 C63.9436967,53.4055947 63.9436967,53.4277034 63.9080271,53.4277034 L62.5454502,53.4277034 Z M67.6573025,50.6125243 C67.9569268,50.6198939 68.256551,50.6198939 68.5561752,50.6272635 C69.2410306,50.6420026 69.4122445,50.8115029 69.4336462,51.0325903 C69.4336462,51.0620686 69.4407801,51.0841773 69.4407801,51.1136557 C69.447914,51.2168298 69.4621819,51.2389385 69.4978514,51.2389385 C69.5263871,51.2389385 69.5477888,51.2094602 69.5477888,51.143134 C69.5477888,51.0620686 69.5691905,50.5535677 69.5691905,50.3324803 C69.5691905,50.2882628 69.5691905,50.2440454 69.533521,50.2440454 C69.5049853,50.2440454 69.4407801,50.2661541 69.3337715,50.2808933 C69.2196289,50.303002 69.055549,50.3177412 68.8272638,50.3177412 L66.1520474,50.3177412 C66.0664405,50.3177412 65.7953519,50.303002 65.5884685,50.2808933 C65.3958529,50.2661541 65.3245138,50.1924583 65.2745764,50.1924583 C65.2460408,50.1924583 65.2175051,50.2882628 65.2032373,50.3324803 C65.1889695,50.3914369 65.0462913,51.0252207 65.0462913,51.0989165 C65.0462913,51.143134 65.0605591,51.1652427 65.0819609,51.1652427 C65.1104965,51.1652427 65.1318982,51.1505036 65.1533,51.0915469 C65.1747017,51.0399599 65.1961034,50.9883728 65.2745764,50.86309 C65.388719,50.6862201 65.5599329,50.634633 66.0022353,50.6272635 C66.3517969,50.6198939 66.7084924,50.6198939 67.058054,50.6125243 L67.058054,53.7298561 C67.058054,54.4373357 67.058054,55.0195324 67.0223845,55.3290547 C66.9938489,55.5427725 66.9581793,55.7049032 66.8155011,55.7343815 C66.7512959,55.7491207 66.665689,55.7638599 66.6014838,55.7638599 C66.5586803,55.7638599 66.5444125,55.7859686 66.5444125,55.8080773 C66.5444125,55.8522948 66.580082,55.867034 66.6585551,55.867034 C66.8725724,55.867034 67.3220087,55.8449252 67.3576783,55.8449252 C67.3933478,55.8449252 67.8427842,55.867034 68.2351493,55.867034 C68.3136223,55.867034 68.3492918,55.8449252 68.3492918,55.8080773 C68.3492918,55.7859686 68.335024,55.7638599 68.2922206,55.7638599 C68.2280154,55.7638599 68.0710693,55.7491207 67.9711946,55.7343815 C67.7571773,55.7049032 67.7143738,55.5427725 67.6929721,55.3290547 C67.6573025,55.0195324 67.6573025,54.4373357 67.6573025,53.7298561 L67.6573025,50.6125243 Z M73.9887456,52.4328103 C73.9887456,51.283156 73.9887456,51.0768078 74.0030134,50.8409812 C74.0172812,50.583046 74.0743525,50.4577631 74.2812359,50.4209153 C74.3668429,50.4061761 74.4667176,50.3988065 74.516655,50.3988065 C74.5451906,50.3988065 74.5737263,50.3840674 74.5737263,50.354589 C74.5737263,50.3103716 74.5380567,50.2956324 74.4595837,50.2956324 C74.2455664,50.2956324 73.7247909,50.3177412 73.6891214,50.3177412 C73.6534518,50.3177412 73.2040155,50.2956324 72.8829895,50.2956324 C72.8045165,50.2956324 72.7688469,50.3103716 72.7688469,50.354589 C72.7688469,50.3840674 72.7973826,50.3988065 72.8259182,50.3988065 C72.8901234,50.3988065 73.0113999,50.4061761 73.0684712,50.4209153 C73.3038902,50.4725023 73.3609615,50.5904156 73.3752293,50.8409812 C73.3894971,51.0768078 73.3894971,51.283156 73.3894971,52.4328103 L73.3894971,53.7298561 C73.3894971,54.4373357 73.3894971,55.0195324 73.3538276,55.3290547 C73.3252919,55.5427725 73.2896224,55.7049032 73.1469442,55.7343815 C73.082739,55.7491207 72.9971321,55.7638599 72.9329269,55.7638599 C72.8901234,55.7638599 72.8758556,55.7859686 72.8758556,55.8080773 C72.8758556,55.8522948 72.9115251,55.867034 72.9899981,55.867034 C73.2539528,55.867034 73.4679701,55.8449252 73.6891214,55.8449252 C74.3811107,55.8449252 74.9874931,55.8891427 75.6010094,55.8891427 C75.9791066,55.8891427 76.0005083,55.8596644 76.0504457,55.6901641 C76.107517,55.4764463 76.1574544,55.0342716 76.1574544,54.9532062 C76.1574544,54.8721408 76.1503205,54.8426625 76.1146509,54.8426625 C76.0718475,54.8426625 76.0575796,54.8795104 76.0504457,54.938467 C76.029044,55.078489 75.9577049,55.2627285 75.864964,55.3806418 C75.6937502,55.5943595 75.3798581,55.6017291 75.0017609,55.6017291 C74.4453159,55.6017291 74.2598342,55.5501421 74.1456916,55.4322288 C74.0172812,55.2995764 73.9887456,54.8279234 73.9887456,53.7445953 L73.9887456,52.4328103 Z M80.1343015,53.6930082 C80.1699711,53.6930082 80.1842389,53.7077474 80.1985067,53.7372257 L80.8619604,55.5501421 C80.9047639,55.6680553 80.8619604,55.7343815 80.8191569,55.7491207 C80.7906213,55.7564903 80.7692196,55.7712294 80.7692196,55.8007077 C80.7692196,55.8449252 80.8476926,55.8449252 80.9832369,55.8522948 C81.4754767,55.867034 81.9962522,55.867034 82.1032608,55.867034 C82.1817338,55.867034 82.245939,55.8522948 82.245939,55.8080773 C82.245939,55.7712294 82.2102695,55.7638599 82.167466,55.7638599 C82.1103947,55.7638599 81.9962522,55.7564903 81.8892435,55.7196424 C81.7394314,55.6754249 81.532548,55.5575116 81.2757272,54.9016191 C80.8405587,53.7814432 79.7205347,50.7378071 79.6135261,50.4577631 C79.5279191,50.2293062 79.4993835,50.1924583 79.45658,50.1924583 C79.4137766,50.1924583 79.3852409,50.2366758 79.299634,50.4798719 L77.6802363,55.0563803 C77.551826,55.4248592 77.4091477,55.7049032 77.0809879,55.7491207 C77.0239166,55.7564903 76.9597114,55.7638599 76.909774,55.7638599 C76.8455688,55.7638599 76.8098993,55.778599 76.8098993,55.8080773 C76.8098993,55.8522948 76.8527027,55.867034 76.9454436,55.867034 C77.2807374,55.867034 77.6731024,55.8449252 77.7515754,55.8449252 C77.8300485,55.8449252 78.1154049,55.867034 78.2866187,55.867034 C78.3508239,55.867034 78.4150291,55.8522948 78.4150291,55.8080773 C78.4150291,55.778599 78.3936274,55.7638599 78.3222883,55.7638599 L78.2580831,55.7638599 C78.1368066,55.7638599 78.0012623,55.6975336 78.0012623,55.5501421 C78.0012623,55.4174897 78.0369319,55.2406198 78.1011371,55.0563803 L78.5291717,53.7519649 C78.5434395,53.715117 78.5648412,53.6930082 78.6005108,53.6930082 L80.1343015,53.6930082 Z M78.6789838,53.4277034 C78.6575821,53.4277034 78.6433143,53.4129642 78.6575821,53.3761163 L79.2853662,51.3863301 C79.3210357,51.2757864 79.3567053,51.2757864 79.3923748,51.3863301 L80.0700963,53.3761163 C80.0772303,53.4055947 80.0772303,53.4277034 80.0415607,53.4277034 L78.6789838,53.4277034 Z M83.3271319,55.3880113 C83.4698101,55.8891427 83.5054797,55.9702081 83.5768188,55.9702081 C83.6481579,55.9702081 83.6980953,55.8891427 83.8122378,55.5796204 C84.0690586,54.8942496 85.0464044,52.1969837 85.310359,51.4673954 L86.7157394,55.58699 C86.8156141,55.8744035 86.8584176,55.9702081 86.9297567,55.9702081 C87.0082297,55.9702081 87.0438993,55.8817731 87.2293809,55.3364243 C87.5076035,54.5110315 88.2281284,52.1675054 88.5420205,51.2315689 C88.6775648,50.8262421 88.7917073,50.5167198 89.0057246,50.4356544 C89.0841977,50.4061761 89.219742,50.3988065 89.2482776,50.3988065 C89.2910811,50.3988065 89.3124828,50.3766978 89.3124828,50.3398499 C89.3124828,50.3103716 89.2768132,50.2956324 89.2126081,50.2956324 C88.9914568,50.2956324 88.6846987,50.3177412 88.6347613,50.3177412 C88.5705561,50.3177412 88.2709319,50.2956324 87.9071024,50.2956324 C87.8214955,50.2956324 87.785826,50.3103716 87.785826,50.3472195 C87.785826,50.3766978 87.8143616,50.3988065 87.8500312,50.3988065 C88.178191,50.3988065 88.2566641,50.4872415 88.2566641,50.6198939 C88.2566641,50.7156984 88.2495301,50.8188725 88.178191,51.0915469 C87.9285042,52.034853 87.2721844,54.1720308 87.065301,54.8942496 L85.631385,50.6714809 C85.5457781,50.4209153 85.5029746,50.3251107 85.4530372,50.3251107 C85.4102338,50.3251107 85.3816981,50.3619586 85.2746895,50.6641114 L83.7551666,54.88688 C83.641024,54.4741836 82.8990973,51.7695482 82.7920887,51.2978951 C82.7207495,50.9736337 82.6565444,50.7156984 82.6565444,50.6198939 C82.6565444,50.5240894 82.7064817,50.4651327 82.7492852,50.443024 C82.8348921,50.3988065 82.9704364,50.3988065 83.0275077,50.3988065 C83.0631773,50.3988065 83.0988468,50.3914369 83.0988468,50.3472195 C83.0988468,50.3177412 83.0703112,50.2956324 82.9704364,50.2956324 C82.6137409,50.2956324 82.2998488,50.3177412 82.2356436,50.3177412 C82.1571706,50.3177412 81.7648055,50.2956324 81.3938422,50.2956324 C81.3225031,50.2956324 81.2796996,50.3103716 81.2796996,50.3472195 C81.2796996,50.3914369 81.3082353,50.3988065 81.3439048,50.3988065 C81.3938422,50.3988065 81.57219,50.4061761 81.6649308,50.443024 C81.8504125,50.5167198 81.9431533,50.6272635 82.0572959,51.0178511 L83.3271319,55.3880113 Z" id="ATTORNEYS-AT-LAW" fill="#3A3F28"></path>
        </g>
    </g>
</svg>