<?xml version="1.0" encoding="UTF-8" standalone="no"?>
<svg width="153px" height="36px" viewBox="0 0 153 36" version="1.1" xmlns="http://www.w3.org/2000/svg" xmlns:xlink="http://www.w3.org/1999/xlink">
    <!-- Generator: Sketch 3.8.3 (29802) - http://www.bohemiancoding.com/sketch -->
    <title>Light gold wordmark@2x</title>
    <desc>Created with Sketch.</desc>
    <defs></defs>
    <g id="Page-1" stroke="none" stroke-width="1" fill="none" fill-rule="evenodd">
        <g id="Desktop" transform="translate(-264.000000, -223.000000)" fill="#E1DCAC">
            <g id="Light-gold-wordmark" transform="translate(264.000000, 223.000000)">
                <path d="M1.88401447,10.7854958 C1.88401447,12.942595 1.88401447,14.7177079 1.77573777,15.6614387 C1.68911642,16.3130624 1.60249506,16.8298675 1.16938829,16.9197466 C0.974490241,16.9646862 0.82290287,16.9871559 0.649660161,16.9871559 C0.368140758,16.9871559 0.32483008,17.0770351 0.32483008,17.1444444 C0.32483008,17.2567933 0.433106774,17.3017329 0.671315499,17.3017329 C1.42925235,17.3017329 2.10056785,17.2343235 2.79353869,17.2343235 C2.88016005,17.2343235 3.48650953,17.2567933 4.11451435,17.3017329 C4.74251917,17.3242027 5.43549001,17.3691422 5.67369874,17.3691422 C9.37676165,17.3691422 11.1958101,14.8749963 11.1958101,12.4707296 C11.1958101,9.84176495 9.05193157,8.24641035 7.44943651,7.72960535 C8.46723743,6.62858598 9.48503834,5.52756661 9.48503834,3.68504441 C9.48503834,2.56155526 8.70544615,0.314576962 5.15397061,0.314576962 C4.15782503,0.314576962 3.31326682,0.381986311 2.79353869,0.381986311 C2.685262,0.381986311 1.32097566,0.314576962 0.346485419,0.314576962 C0.108276693,0.314576962 0,0.359516528 0,0.494335226 C0,0.584214357 0.0866213547,0.629153923 0.281519403,0.629153923 C0.368140758,0.629153923 0.736281515,0.651623706 0.909524225,0.696563272 C1.6241504,0.853851753 1.79739311,1.21336828 1.84070379,1.9773409 C1.88401447,2.69637396 1.88401447,3.32552788 1.88401447,6.83081403 L1.88401447,10.7854958 Z M3.61644156,1.30324741 C3.61644156,1.16842871 3.68140758,1.10101937 3.87630562,1.0560798 C4.22279104,0.966200668 4.67755316,0.943730885 4.91576188,0.943730885 C7.03798507,0.943730885 7.8392326,2.94354157 7.8392326,4.80853356 C7.8392326,5.72979466 7.51440252,6.53870685 7.05964041,7.07798164 C6.6048783,7.61725643 6.30170356,7.662196 5.08900459,7.662196 C4.28775706,7.662196 3.89796096,7.59478665 3.76802893,7.57231686 C3.65975224,7.5273773 3.61644156,7.48243773 3.61644156,7.32514925 L3.61644156,1.30324741 Z M3.61644156,8.42616862 C3.61644156,8.3138197 3.65975224,8.26888014 3.74637359,8.26888014 C4.07120367,8.26888014 5.15397061,8.26888014 5.43549001,8.3138197 C5.95521814,8.38122905 6.49660161,8.4486384 7.23288312,8.96544341 C8.9003442,10.1563419 9.33345097,12.111213 9.33345097,13.4594 C9.33345097,15.9984855 7.44943651,16.6501092 6.28004822,16.6501092 C5.89025212,16.6501092 4.95907256,16.6051696 4.37437841,16.3130624 C3.70306292,15.9760157 3.70306292,15.6614387 3.6380969,14.5604194 C3.61644156,14.2233726 3.61644156,11.4371195 3.61644156,9.70694625 L3.61644156,8.42616862 Z M21.8718921,17.5489005 C26.4844792,17.5489005 29.537882,14.0436144 29.537882,9.75188581 C29.537882,5.23545943 26.2679258,2.58402504 21.9801688,2.58402504 C16.6313001,2.58402504 14.4008002,7.05551186 14.4008002,10.043993 C14.4008002,13.4594 16.5663341,17.5489005 21.8718921,17.5489005 L21.8718921,17.5489005 Z M22.4132755,16.7849279 C18.7751786,16.7849279 16.4147467,13.8638561 16.4147467,9.45977863 C16.4147467,5.21298965 18.8401447,3.28058832 21.8502367,3.28058832 C24.8170181,3.28058832 27.5022801,5.79720401 27.5022801,10.3136304 C27.5022801,16.0209553 23.8641832,16.7849279 22.4132755,16.7849279 L22.4132755,16.7849279 Z M33.5224643,14.49301 C33.5224643,16.1333042 33.4141876,16.7399883 32.9377701,16.8972768 C32.6562507,16.9871559 32.418042,16.9871559 32.2664546,16.9871559 C32.0499013,16.9871559 31.9632799,17.0545653 31.9632799,17.1444444 C31.9632799,17.2792631 32.0932119,17.3017329 32.28811,17.3017329 C33.2192895,17.3017329 34.0205371,17.2343235 34.1721244,17.2343235 C34.3237118,17.2343235 35.103304,17.3017329 36.2726923,17.3017329 C36.510901,17.3017329 36.6191777,17.2567933 36.6191777,17.1444444 C36.6191777,17.0545653 36.5325564,16.9871559 36.3593137,16.9871559 C36.1860709,16.9871559 35.8179302,16.9871559 35.4714448,16.8972768 C34.9300613,16.7624581 34.8001293,16.1782437 34.7568186,14.6278287 L34.4752992,5.84214357 C35.0166827,6.42635793 37.1822165,8.76321536 39.4343717,11.1899519 C41.3183862,13.0998835 44.3284783,16.2007135 44.4150996,16.2456531 C45.4762112,17.2792631 45.6927646,17.4365516 45.844352,17.4365516 C45.9959394,17.4365516 46.03925,17.3242027 46.03925,16.2007135 L46.0825607,4.92088247 C46.0825607,3.57269549 46.2341481,3.34799766 46.7322209,3.23564875 C46.9704296,3.19070918 47.1436723,3.19070918 47.2736044,3.1682394 C47.4035364,3.14576962 47.4685024,3.07836027 47.4685024,2.98848114 C47.4685024,2.87613222 47.4035364,2.85366244 47.1653277,2.85366244 C46.3207694,2.85366244 45.6494539,2.92107179 45.4329006,2.92107179 C45.2380025,2.92107179 44.3284783,2.85366244 43.3972987,2.85366244 C43.1807453,2.85366244 43.0075026,2.87613222 43.0075026,2.98848114 C43.0075026,3.07836027 43.0508133,3.1682394 43.2673667,3.1682394 C43.4189541,3.1682394 43.7437841,3.19070918 44.1119249,3.25811853 C44.696619,3.41540701 44.8265511,3.81986311 44.8482064,5.03323139 L45.0864151,14.3806611 C44.5233763,13.8413863 42.3578425,11.5269987 40.6687261,9.81929516 C37.6369786,6.6061162 34.6268866,3.41540701 34.4319885,3.19070918 C34.2804011,3.0334207 33.9122604,2.58402504 33.760673,2.58402504 C33.5874303,2.58402504 33.5224643,2.80872287 33.5224643,3.50528614 C33.5441196,7.23527012 33.5224643,3.77492354 33.5224643,14.49301 L33.5224643,14.49301 Z M52.2759876,11.7067569 C52.2759876,13.5268094 52.2976429,15.0547546 52.1677109,15.8861366 C52.1027449,16.3804718 51.9728128,16.8523372 51.6046721,16.9197466 C51.4314294,16.9646862 51.279842,16.9871559 51.1065993,16.9871559 C50.9333566,16.9871559 50.8683906,17.0770351 50.8683906,17.1444444 C50.8683906,17.2567933 50.9766673,17.3017329 51.1715653,17.3017329 C51.4963954,17.3017329 52.0161235,17.2567933 52.427575,17.2567933 C52.8390264,17.2343235 53.1205458,17.2343235 53.1638565,17.2343235 C53.2288225,17.2343235 53.900138,17.3017329 54.7230409,17.3466725 C55.5459437,17.4140818 56.6070553,17.4590214 57.4299582,17.4590214 C60.7215697,17.4590214 62.3673754,16.1333042 63.2119336,15.2569826 C64.2730452,14.1334935 65.2691908,12.2685015 65.2691908,9.88670451 C65.2691908,7.61725643 64.3813219,6.04437162 63.428487,5.05570117 C61.1330211,2.65143439 57.5815456,2.85366244 55.6758758,2.85366244 C54.4631768,2.85366244 53.3370992,2.92107179 53.1855118,2.92107179 C53.1205458,2.92107179 51.7562595,2.85366244 50.8683906,2.85366244 C50.6734925,2.85366244 50.5435605,2.898602 50.5435605,3.0334207 C50.5435605,3.10083005 50.6518372,3.1682394 50.7601139,3.1682394 C50.9333566,3.1682394 51.2581867,3.19070918 51.3881187,3.21317897 C52.0161235,3.34799766 52.1893662,3.66257463 52.2326769,4.26925877 C52.2759876,4.85347312 52.2759876,5.4152177 52.2759876,8.38122905 L52.2759876,11.7067569 Z M54.0517254,8.02171252 C54.0517254,6.67352555 54.0517254,4.76359399 54.0733807,4.11197029 C54.0733807,3.90974224 54.1383467,3.81986311 54.3115894,3.72998397 C54.4415215,3.64010484 55.112837,3.57269549 55.4160117,3.57269549 C57.5598902,3.57269549 59.6821134,3.79739332 61.5228172,5.70732488 C62.2590987,6.44882772 63.3851763,7.99924274 63.3851763,10.5383282 C63.3851763,12.3359109 62.9304142,14.0211446 61.9775793,15.009815 C60.8515017,16.1782437 59.2490066,16.7624581 57.4732689,16.7624581 C55.2211136,16.7624581 54.5281428,16.2905927 54.2899341,15.9086064 C54.1383467,15.7063783 54.095036,15.0996942 54.0733807,14.4031309 C54.0733807,14.0660841 54.0517254,12.3134411 54.0517254,10.2911606 L54.0517254,8.02171252 Z M79.8432337,17.6163099 C83.0482239,17.6163099 84.7156849,15.8187272 85.2137577,15.3019222 C87.1410829,16.8972768 88.0289518,17.2118538 89.133374,17.3017329 C89.8263449,17.3691422 90.6925584,17.3017329 91.9485681,17.3017329 C92.1434661,17.3017329 92.2517428,17.2567933 92.2517428,17.1444444 C92.2517428,17.0096257 92.1001554,16.9871559 91.9052574,16.9871559 C91.1256652,16.9871559 90.0645536,16.5377603 89.3715828,16.1108344 C88.7652333,15.7513179 87.8123984,15.1446337 86.383146,13.8863259 C87.3359809,12.6729576 88.5270245,10.4035095 88.5270245,8.5834571 C88.5270245,8.35875927 88.4620585,8.179001 88.1372284,8.13406144 C86.9245295,7.99924274 86.0583159,7.97677296 85.5385878,7.97677296 C85.3653451,7.97677296 85.1921024,8.02171252 85.1921024,8.13406144 C85.1921024,8.24641035 85.3870004,8.26888014 85.6252092,8.3138197 C85.9067286,8.35875927 86.2748693,8.40369883 86.513078,8.65086645 C86.8379081,8.98791319 86.9245295,9.41483907 86.9245295,9.75188581 C86.9245295,11.1225426 86.4264567,12.628018 85.8201072,13.4818698 C85.1271364,12.8751856 82.4635297,10.2911606 81.7272482,9.45977863 C79.475093,6.92069316 78.3057047,5.46015726 78.3057047,3.70751419 C78.3057047,1.59535459 79.7566124,0.763972621 81.0559327,0.763972621 C81.9871123,0.763972621 82.7017384,1.16842871 83.2214666,1.75264307 C83.7411947,2.31438765 83.8927821,2.98848114 83.8927821,3.66257463 C83.8927821,3.99962137 83.9144374,4.0895005 84.0227141,4.0895005 C84.1309908,4.0895005 84.1959568,3.9546818 84.2609228,3.55022571 C84.3475442,2.96601135 84.3908549,1.95487112 84.3908549,1.12348915 C84.3908549,0.808912187 84.3691995,0.674093489 83.9144374,0.44939566 C83.3730539,0.179758264 82.420219,0 81.4890395,0 C78.5872241,0 76.8331417,2.35932721 76.8331417,4.13444007 C76.8331417,5.1455803 77.049695,6.0668414 77.8509426,7.23527012 C76.1618262,8.26888014 74.5809864,10.0215232 74.5809864,12.6504878 C74.5809864,14.6053589 76.0535495,17.6163099 79.8432337,17.6163099 L79.8432337,17.6163099 Z M80.6228259,16.3804718 C78.197428,16.3804718 76.3567242,14.4031309 76.3567242,11.594408 C76.3567242,9.79682538 77.049695,8.5834571 78.1757727,7.81948448 C78.7821221,8.74074558 80.2113745,10.35857 80.7744133,10.9877239 C81.3374521,11.6168778 83.4596753,13.7964468 84.6723743,14.8525266 C83.9360927,15.638969 82.6367724,16.3804718 80.6228259,16.3804718 L80.6228259,16.3804718 Z M109.467737,17.6163099 C110.853679,17.6163099 112.499484,17.4590214 113.365698,17.0995048 C113.755494,16.9197466 113.798805,16.874807 113.928737,16.4478811 C114.14529,15.6839085 114.405154,13.7290374 114.405154,13.5717489 C114.405154,13.3919907 114.361844,13.2347022 114.253567,13.2347022 C114.123635,13.2347022 114.080324,13.3245813 114.037014,13.5717489 C113.972048,13.976205 113.690528,14.9648755 113.235766,15.4592107 C112.369552,16.3804718 111.091887,16.5826998 109.467737,16.5826998 C104.833495,16.5826998 101.65016,12.6504878 101.65016,8.35875927 C101.65016,6.0668414 102.018301,4.06703072 103.59914,2.49414591 C104.357077,1.73017329 105.699708,0.853851753 108.579868,0.853851753 C110.485538,0.853851753 112.152999,1.46053589 112.910936,2.13462938 C113.473975,2.62896461 113.82046,3.55022571 113.82046,4.42654725 C113.82046,4.74112421 113.842115,4.89841269 113.993703,4.89841269 C114.123635,4.89841269 114.166946,4.76359399 114.188601,4.42654725 C114.210256,4.0895005 114.210256,2.85366244 114.253567,2.1121596 C114.296878,1.30324741 114.361844,1.03361002 114.361844,0.853851753 C114.361844,0.719033055 114.318533,0.629153923 114.166946,0.60668414 C113.365698,0.494335226 112.694383,0.426925877 111.87148,0.269637396 C110.810368,0.0674093489 109.597669,0 108.731456,0 C105.396533,0 103.425898,1.0560798 102.126577,2.40426678 C100.199252,4.40407746 99.7011793,7.03304207 99.7011793,8.53851753 C99.7011793,10.6731469 100.220907,13.2347022 102.321475,15.1895733 C104.032247,16.7849279 106.219436,17.6163099 109.467737,17.6163099 L109.467737,17.6163099 Z M125.29779,11.8191058 C125.384411,11.8191058 125.427722,11.8640454 125.471032,11.9314548 L127.181804,16.4478811 C127.311736,16.7849279 127.181804,16.8972768 127.095183,16.9422164 C127.008561,16.9646862 126.943595,17.0320955 126.943595,17.0995048 C126.943595,17.2118538 127.073527,17.2343235 127.484979,17.2567933 C128.935887,17.3017329 130.560037,17.3017329 130.77659,17.3017329 C131.014799,17.3017329 131.10142,17.2567933 131.10142,17.1444444 C131.10142,17.0320955 130.993144,16.9871559 130.841556,16.9871559 C130.689969,16.9871559 130.386794,16.9871559 130.105275,16.874807 C129.8021,16.7624581 129.174095,16.4703509 128.459469,14.6952381 C127.311736,11.8865152 124.36661,4.04456094 124.063435,3.3030581 C123.825227,2.67390417 123.738605,2.58402504 123.630329,2.58402504 C123.478741,2.58402504 123.413775,2.69637396 123.175566,3.34799766 L118.844499,15.1895733 C118.476358,16.1333042 118.108217,16.874807 117.177038,16.9646862 C117.047106,16.9871559 116.852208,16.9871559 116.743931,16.9871559 C116.570688,16.9871559 116.484067,17.0545653 116.484067,17.1444444 C116.484067,17.2567933 116.592343,17.3017329 116.830552,17.3017329 C117.740076,17.3017329 118.692911,17.2343235 118.909465,17.2343235 C119.147673,17.2343235 120.143819,17.3017329 120.620236,17.3017329 C120.771824,17.3017329 120.945067,17.2567933 120.945067,17.1444444 C120.945067,17.0545653 120.880101,16.9871559 120.685202,16.9871559 L120.533615,16.9871559 C120.057198,16.9871559 119.818989,16.8073977 119.818989,16.4029416 C119.818989,16.043425 119.970576,15.4367409 120.18713,14.807587 L121.139965,11.9988641 C121.183275,11.8865152 121.248241,11.8191058 121.356518,11.8191058 L125.29779,11.8191058 Z M121.573071,11.0326634 C121.529761,11.0326634 121.48645,10.9877239 121.529761,10.8978447 L123.153911,5.93202271 C123.262188,5.61744575 123.283843,5.61744575 123.39212,5.93202271 L125.102892,10.8978447 C125.124547,10.9652541 125.124547,11.0326634 125.037926,11.0326634 L121.573071,11.0326634 Z M135.519109,8.38122905 C135.519109,5.4152177 135.497454,4.92088247 135.540765,4.31419833 C135.584076,3.66257463 135.714008,3.3030581 136.320357,3.21317897 C136.53691,3.19070918 136.753464,3.1682394 136.905051,3.1682394 C137.034983,3.1682394 137.14326,3.10083005 137.14326,3.01095092 C137.14326,2.92107179 137.078294,2.85366244 136.86174,2.85366244 C136.255391,2.85366244 134.934415,2.92107179 134.631241,2.92107179 C134.58793,2.92107179 133.28861,2.85366244 132.379085,2.85366244 C132.162532,2.85366244 132.054255,2.898602 132.054255,3.01095092 C132.054255,3.10083005 132.140877,3.1682394 132.292464,3.1682394 C132.465707,3.1682394 132.703915,3.1682394 132.833847,3.19070918 C133.570129,3.28058832 133.65675,3.68504441 133.700061,4.31419833 C133.743372,4.92088247 133.743372,5.4152177 133.743372,8.38122905 L133.743372,11.7516965 C133.743372,13.4818698 133.786682,15.0322848 133.65675,15.8861366 C133.591784,16.4254114 133.461852,16.874807 133.093712,16.9422164 C132.920469,16.9871559 132.747226,16.9871559 132.573983,16.9871559 C132.400741,16.9871559 132.335775,17.0545653 132.335775,17.1219746 C132.335775,17.2567933 132.465707,17.3017329 132.68226,17.3017329 C133.440197,17.3017329 133.873304,17.2343235 134.58793,17.2343235 C136.753464,17.2343235 138.377614,17.3466725 139.850177,17.3466725 C140.889633,17.3466725 140.867978,17.2343235 140.99791,16.7849279 C141.127842,16.2681229 141.257774,14.9873452 141.257774,14.7626474 C141.257774,14.5379496 141.214464,14.4705402 141.127842,14.4705402 C141.019566,14.4705402 140.976255,14.5604194 140.9546,14.7401776 C140.911289,15.0772244 140.759701,15.52662 140.543148,15.8636668 C140.066731,16.4928207 139.200517,16.4928207 138.247682,16.4928207 C136.753464,16.4928207 136.320357,16.358002 135.973872,16.043425 C135.605731,15.6839085 135.519109,14.3806611 135.519109,11.7966361 L135.519109,8.38122905 Z M146.866507,8.38122905 C146.866507,5.4152177 146.844852,4.92088247 146.888162,4.31419833 C146.931473,3.66257463 147.061405,3.3030581 147.667754,3.21317897 C147.884308,3.19070918 148.100861,3.1682394 148.252449,3.1682394 C148.382381,3.1682394 148.490657,3.10083005 148.490657,3.01095092 C148.490657,2.92107179 148.425691,2.85366244 148.209138,2.85366244 C147.602788,2.85366244 146.281813,2.92107179 145.978638,2.92107179 C145.935327,2.92107179 144.636007,2.85366244 143.726483,2.85366244 C143.509929,2.85366244 143.401653,2.898602 143.401653,3.01095092 C143.401653,3.10083005 143.488274,3.1682394 143.639862,3.1682394 C143.813104,3.1682394 144.051313,3.1682394 144.181245,3.19070918 C144.917526,3.28058832 145.004148,3.68504441 145.047459,4.31419833 C145.090769,4.92088247 145.090769,5.4152177 145.090769,8.38122905 L145.090769,11.7516965 C145.090769,13.4818698 145.13408,15.0322848 145.004148,15.8861366 C144.939182,16.4254114 144.80925,16.874807 144.441109,16.9422164 C144.267866,16.9871559 144.094624,16.9871559 143.921381,16.9871559 C143.748138,16.9871559 143.683172,17.0545653 143.683172,17.1219746 C143.683172,17.2567933 143.813104,17.3017329 144.029658,17.3017329 C144.787594,17.3017329 145.220701,17.2343235 145.935327,17.2343235 C148.100861,17.2343235 149.725012,17.3466725 151.197575,17.3466725 C152.237031,17.3466725 152.215376,17.2343235 152.345308,16.7849279 C152.47524,16.2681229 152.605172,14.9873452 152.605172,14.7626474 C152.605172,14.5379496 152.561861,14.4705402 152.47524,14.4705402 C152.366963,14.4705402 152.323652,14.5604194 152.301997,14.7401776 C152.258686,15.0772244 152.107099,15.52662 151.890546,15.8636668 C151.414128,16.4928207 150.547915,16.4928207 149.59508,16.4928207 C148.100861,16.4928207 147.667754,16.358002 147.321269,16.043425 C146.953128,15.6839085 146.866507,14.3806611 146.866507,11.7966361 L146.866507,8.38122905 Z" id="Bond-&amp;-Call-Copy"></path>
                <path d="M22.846414,32.1258052 C22.8984141,32.1258052 22.9192142,32.1473876 22.9400143,32.1905522 L23.907217,34.8451798 C23.9696172,35.0178385 23.907217,35.114959 23.8448169,35.1365413 C23.8032167,35.1473325 23.7720167,35.1689149 23.7720167,35.2120795 C23.7720167,35.2768265 23.886417,35.2768265 24.0840176,35.2876177 C24.8016196,35.3092001 25.5608218,35.3092001 25.7168223,35.3092001 C25.8312226,35.3092001 25.9248229,35.2876177 25.9248229,35.2228707 C25.9248229,35.1689149 25.8728227,35.1581237 25.8104225,35.1581237 C25.7272223,35.1581237 25.5608218,35.1473325 25.4048214,35.0933767 C25.1864207,35.0286297 24.8848199,34.855971 24.5104188,33.8955569 C23.876017,32.2552993 22.2432122,27.7985465 22.0872118,27.3884821 C21.9624114,27.0539558 21.9208113,27 21.8584111,27 C21.796011,27 21.7544108,27.064747 21.6296105,27.4208556 L19.2688037,34.1221715 C19.0816031,34.6617299 18.8736025,35.0717943 18.3952011,35.1365413 C18.3120009,35.1473325 18.2184006,35.1581237 18.1456004,35.1581237 C18.0520002,35.1581237 18,35.179706 18,35.2228707 C18,35.2876177 18.0624002,35.3092001 18.1976006,35.3092001 C18.686402,35.3092001 19.2584036,35.2768265 19.372804,35.2768265 C19.4872043,35.2768265 19.9032055,35.3092001 20.1528062,35.3092001 C20.2464065,35.3092001 20.3400068,35.2876177 20.3400068,35.2228707 C20.3400068,35.179706 20.3088067,35.1581237 20.2048064,35.1581237 L20.1112061,35.1581237 C19.9344056,35.1581237 19.736805,35.0610032 19.736805,34.8451798 C19.736805,34.6509387 19.7888052,34.3919507 19.8824054,34.1221715 L20.5064072,32.2121346 C20.5272073,32.1581787 20.5584074,32.1258052 20.6104075,32.1258052 L22.846414,32.1258052 Z M20.7248079,31.7373231 C20.6936078,31.7373231 20.6728077,31.7157408 20.6936078,31.661785 L21.6088104,28.7481694 C21.6608106,28.5863018 21.7128107,28.5863018 21.7648109,28.7481694 L22.7528137,31.661785 C22.7632137,31.7049496 22.7632137,31.7373231 22.7112136,31.7373231 L20.7248079,31.7373231 Z M28.1770205,27.6150966 C28.6138217,27.6258878 29.050623,27.6258878 29.4874243,27.636679 C30.4858271,27.6582613 30.7354279,27.9064582 30.766628,28.2301933 C30.766628,28.2733579 30.777028,28.3057314 30.777028,28.3488961 C30.787428,28.4999725 30.8082281,28.532346 30.8602282,28.532346 C30.9018283,28.532346 30.9330284,28.4891813 30.9330284,28.3920608 C30.9330284,28.2733579 30.9642285,27.5287673 30.9642285,27.2050322 C30.9642285,27.1402852 30.9642285,27.0755382 30.9122284,27.0755382 C30.8706283,27.0755382 30.777028,27.1079117 30.6210275,27.129494 C30.4546271,27.1618675 30.2154264,27.1834499 29.8826254,27.1834499 L25.9826141,27.1834499 C25.8578138,27.1834499 25.4626126,27.1618675 25.1610118,27.129494 C24.880211,27.1079117 24.7762107,27 24.7034105,27 C24.6618103,27 24.6202102,27.1402852 24.5994102,27.2050322 C24.5786101,27.2913616 24.3706095,28.2194021 24.3706095,28.3273138 C24.3706095,28.3920608 24.3914096,28.4244343 24.4226096,28.4244343 C24.4642098,28.4244343 24.4954099,28.402852 24.5266099,28.3165226 C24.55781,28.2409844 24.5890101,28.1654462 24.7034105,27.9819964 C24.8698109,27.7230083 25.1194117,27.6474701 25.7642135,27.636679 C26.273815,27.6258878 26.7938165,27.6258878 27.303418,27.6150966 L27.303418,32.1797611 C27.303418,33.2157133 27.303418,34.0682156 27.2514178,34.5214447 C27.2098177,34.8343886 27.1578175,35.0717943 26.9498169,35.114959 C26.8562167,35.1365413 26.7314163,35.1581237 26.637816,35.1581237 C26.5754159,35.1581237 26.5546158,35.1904972 26.5546158,35.2228707 C26.5546158,35.2876177 26.6066159,35.3092001 26.7210163,35.3092001 C27.0330172,35.3092001 27.6882191,35.2768265 27.7402192,35.2768265 C27.7922194,35.2768265 28.4474213,35.3092001 29.0194229,35.3092001 C29.1338232,35.3092001 29.1858234,35.2768265 29.1858234,35.2228707 C29.1858234,35.1904972 29.1650233,35.1581237 29.1026232,35.1581237 C29.0090229,35.1581237 28.7802222,35.1365413 28.6346218,35.114959 C28.3226209,35.0717943 28.2602207,34.8343886 28.2290206,34.5214447 C28.1770205,34.0682156 28.1770205,33.2157133 28.1770205,32.1797611 L28.1770205,27.6150966 Z M35.6396331,27.6150966 C36.0764344,27.6258878 36.5132356,27.6258878 36.9500369,27.636679 C37.9484398,27.6582613 38.1980405,27.9064582 38.2292406,28.2301933 C38.2292406,28.2733579 38.2396406,28.3057314 38.2396406,28.3488961 C38.2500407,28.4999725 38.2708407,28.532346 38.3228409,28.532346 C38.364441,28.532346 38.3956411,28.4891813 38.3956411,28.3920608 C38.3956411,28.2733579 38.4268412,27.5287673 38.4268412,27.2050322 C38.4268412,27.1402852 38.4268412,27.0755382 38.374841,27.0755382 C38.3332409,27.0755382 38.2396406,27.1079117 38.0836402,27.129494 C37.9172397,27.1618675 37.678039,27.1834499 37.345238,27.1834499 L33.4452268,27.1834499 C33.3204264,27.1834499 32.9252253,27.1618675 32.6236244,27.129494 C32.3428236,27.1079117 32.2388233,27 32.1660231,27 C32.124423,27 32.0828229,27.1402852 32.0620228,27.2050322 C32.0412227,27.2913616 31.8332221,28.2194021 31.8332221,28.3273138 C31.8332221,28.3920608 31.8540222,28.4244343 31.8852223,28.4244343 C31.9268224,28.4244343 31.9580225,28.402852 31.9892226,28.3165226 C32.0204227,28.2409844 32.0516228,28.1654462 32.1660231,27.9819964 C32.3324236,27.7230083 32.5820243,27.6474701 33.2268262,27.636679 C33.7364276,27.6258878 34.2564291,27.6258878 34.7660306,27.6150966 L34.7660306,32.1797611 C34.7660306,33.2157133 34.7660306,34.0682156 34.7140305,34.5214447 C34.6724303,34.8343886 34.6204302,35.0717943 34.4124296,35.114959 C34.3188293,35.1365413 34.194029,35.1581237 34.1004287,35.1581237 C34.0380285,35.1581237 34.0172284,35.1904972 34.0172284,35.2228707 C34.0172284,35.2876177 34.0692286,35.3092001 34.1836289,35.3092001 C34.4956298,35.3092001 35.1508317,35.2768265 35.2028319,35.2768265 C35.254832,35.2768265 35.9100339,35.3092001 36.4820356,35.3092001 C36.5964359,35.3092001 36.648436,35.2768265 36.648436,35.2228707 C36.648436,35.1904972 36.627636,35.1581237 36.5652358,35.1581237 C36.4716355,35.1581237 36.2428349,35.1365413 36.0972344,35.114959 C35.7852335,35.0717943 35.7228334,34.8343886 35.6916333,34.5214447 C35.6396331,34.0682156 35.6396331,33.2157133 35.6396331,32.1797611 L35.6396331,27.6150966 Z M43.0710457,35.4602764 C45.5774529,35.4602764 47.2206577,33.4639102 47.2206577,31.0466883 C47.2206577,28.532346 45.4734526,27 43.1334459,27 C40.2630376,27 39.035834,29.4711777 39.035834,31.219347 C39.035834,33.1617574 40.2214375,35.4602764 43.0710457,35.4602764 L43.0710457,35.4602764 Z M43.3518465,35.050212 C41.4798411,35.050212 40.0238369,33.4315367 40.0238369,30.9171943 C40.0238369,28.5539283 41.3238406,27.3668997 43.0606457,27.3668997 C44.7038504,27.3668997 46.2222548,28.7589605 46.2222548,31.3488411 C46.2222548,34.4890712 44.2878492,35.050212 43.3518465,35.050212 L43.3518465,35.050212 Z M49.4312552,32.1797611 C49.4312552,33.2157133 49.4312552,34.0682156 49.379255,34.5214447 C49.3376549,34.8343886 49.2856547,35.0717943 49.0776541,35.114959 C48.9840539,35.1365413 48.8592535,35.1581237 48.7656532,35.1581237 C48.703253,35.1581237 48.682453,35.1904972 48.682453,35.2228707 C48.682453,35.2876177 48.7344531,35.3092001 48.8488535,35.3092001 C49.1608544,35.3092001 49.8160563,35.2768265 49.8264563,35.2768265 C49.8784564,35.2768265 50.5336583,35.3092001 51.10566,35.3092001 C51.2200603,35.3092001 51.2720605,35.2768265 51.2720605,35.2228707 C51.2720605,35.1904972 51.2512604,35.1581237 51.1888602,35.1581237 C51.09526,35.1581237 50.8664593,35.1365413 50.7208589,35.114959 C50.408858,35.0717943 50.3464578,34.8343886 50.3152577,34.5214447 C50.2632576,34.0682156 50.2632576,33.2157133 50.2632576,32.1797611 L50.2632576,31.920773 C50.2632576,31.8668172 50.2840576,31.8344437 50.3360578,31.8344437 L51.6152615,31.856026 C51.6776616,31.856026 51.7088617,31.8776083 51.7504618,31.920773 C51.9584624,32.2013434 52.4472639,32.9243517 52.8840651,33.517866 C53.4768668,34.3272037 53.8408679,34.855971 54.2880692,35.1041678 C54.5584699,35.2552442 54.8184707,35.3092001 55.4008724,35.3092001 L56.1392745,35.3092001 C56.326475,35.3092001 56.3888752,35.2876177 56.3888752,35.2228707 C56.3888752,35.1904972 56.3472751,35.1581237 56.295275,35.1581237 C56.2328748,35.1581237 56.0872744,35.1581237 55.8896738,35.1257502 C55.629673,35.0825855 55.1824717,34.9638826 54.6208701,34.348786 C54.0176684,33.6797335 53.3104663,32.7193195 52.4576639,31.5862468 C53.3936666,30.6905798 53.7160675,29.8920333 53.7160675,29.0934868 C53.7160675,28.3488961 53.2584662,27.8201288 52.9984654,27.6258878 C52.4472639,27.2158234 51.7504618,27.1510764 51.09526,27.1510764 C50.772859,27.1510764 49.9824567,27.1834499 49.8680564,27.1834499 C49.8160563,27.1834499 49.1608544,27.1510764 48.692853,27.1510764 C48.5784527,27.1510764 48.5264525,27.1726587 48.5264525,27.2374057 C48.5264525,27.2805704 48.5680527,27.3021527 48.6096528,27.3021527 C48.703253,27.3021527 48.8800536,27.3129439 48.9632538,27.3345262 C49.3064548,27.4100644 49.389655,27.5827231 49.4104551,27.9496229 C49.4312552,28.2949403 49.4312552,28.597093 49.4312552,30.2805153 L49.4312552,32.1797611 Z M50.2632576,27.6906348 C50.2632576,27.6258878 50.2944576,27.5827231 50.3464578,27.5611408 C50.4504581,27.5287673 50.7312589,27.4963938 51.0432598,27.4963938 C52.156063,27.4963938 52.842465,28.3057314 52.842465,29.6546275 C52.842465,30.4747564 52.5720642,31.0574795 52.2080632,31.3164676 C51.9688625,31.4891263 51.6776616,31.5214998 51.4280609,31.5214998 C50.9704596,31.5214998 50.4920582,31.4459616 50.3360578,31.3488411 C50.2840576,31.3164676 50.2632576,31.2733029 50.2632576,31.219347 L50.2632576,27.6906348 Z M56.9292279,33.7228982 C56.9292279,34.7048946 56.8772277,35.0178385 56.617227,35.0933767 C56.4612265,35.1473325 56.274026,35.1581237 56.1908258,35.1581237 C56.1388256,35.1581237 56.1076255,35.179706 56.1076255,35.2228707 C56.1076255,35.2984089 56.1700257,35.3092001 56.274026,35.3092001 C56.7420274,35.3092001 57.1788286,35.2768265 57.2724289,35.2768265 C57.3660292,35.2768265 57.7820304,35.3092001 58.3748321,35.3092001 C58.4996324,35.3092001 58.5620326,35.2876177 58.5620326,35.2228707 C58.5620326,35.179706 58.5308325,35.1581237 58.4788324,35.1581237 C58.3852321,35.1581237 58.1564314,35.1473325 57.9588309,35.0933767 C57.6780301,35.0070473 57.5740298,34.7264769 57.5532297,33.8416011 L57.4180293,28.6726312 C57.7508303,29.0611133 58.9260337,30.4208005 60.1324371,31.7696967 C61.2348403,32.9998899 62.7324446,34.5861917 62.846845,34.6941034 C63.3980466,35.2660354 63.5228469,35.3847382 63.6060472,35.3847382 C63.6788474,35.3847382 63.6996474,35.3307824 63.6996474,34.6185652 L63.7204475,28.3165226 C63.7204475,27.571932 63.7932477,27.4100644 64.0844485,27.3453174 C64.2092489,27.3237351 64.2716491,27.3129439 64.3548493,27.3021527 C64.4276495,27.2913616 64.4692497,27.2697792 64.4692497,27.2266145 C64.4692497,27.1618675 64.3964494,27.1510764 64.2820491,27.1510764 C63.8556479,27.1510764 63.5124469,27.1834499 63.3980466,27.1834499 C63.2836462,27.1834499 62.7844448,27.1510764 62.3164434,27.1510764 C62.1916431,27.1510764 62.1084428,27.1618675 62.1084428,27.2266145 C62.1084428,27.2697792 62.1396429,27.3021527 62.2540433,27.3021527 C62.3476435,27.3021527 62.514044,27.3129439 62.7012446,27.3561086 C63.0236455,27.4424379 63.0964457,27.6798436 63.1068457,28.3812696 L63.2212461,33.8631834 C62.8884451,33.5070748 61.7548418,32.1905522 60.7252389,31.0466883 C59.1236342,29.2661455 57.5740298,27.5287673 57.4180293,27.3453174 C57.314029,27.2374057 57.1372285,27 57.0540283,27 C56.970828,27 56.9396279,27.1187029 56.9396279,27.5395584 C56.950028,29.6330452 56.9292279,28.2301933 56.9292279,32.1258052 L56.9292279,33.7228982 Z M67.1208084,32.1797611 C67.1208084,33.1401751 67.1104084,33.6905247 67.1000084,34.1113803 C67.0792083,34.920718 66.9440079,35.0717943 66.7256073,35.1257502 C66.6528071,35.1473325 66.5904069,35.1473325 66.4864066,35.1581237 C66.4240064,35.1689149 66.3720063,35.1904972 66.3720063,35.2228707 C66.3720063,35.2876177 66.4240064,35.3092001 66.5384067,35.3092001 C66.8088075,35.3199912 67.0584082,35.2768265 67.308009,35.2768265 C67.7136101,35.2768265 68.1920115,35.2984089 68.6080127,35.3092001 C69.0136139,35.3199912 69.3568149,35.3415736 70.1264171,35.3415736 C70.5320183,35.3415736 70.6152185,35.3415736 70.6880187,35.0610032 C70.7400189,34.8343886 70.8232191,34.1005891 70.8232191,34.0142598 C70.8232191,33.9387216 70.8232191,33.8523922 70.7608189,33.8523922 C70.7088188,33.8523922 70.6880187,33.8955569 70.6672187,34.0142598 C70.5840184,34.47828 70.4696181,34.7048946 70.1368171,34.8128063 C69.8560163,34.8991356 69.5128153,34.9099268 69.2008144,34.9099268 C68.7952133,34.9099268 68.5144124,34.8883445 68.3376119,34.8128063 C68.0776112,34.7048946 68.015211,34.4674889 67.9944109,34.025051 C67.9840109,33.7984364 67.9944109,32.5466608 67.9944109,32.1797611 L67.9944109,31.2301382 C67.9944109,31.1869735 68.015211,31.1546 68.0672112,31.1546 C68.2440117,31.1546 69.2736146,31.1761824 69.5544154,31.2085559 C69.9288165,31.2517205 70.0536169,31.4027969 70.095217,31.5646644 C70.1264171,31.661785 70.1368171,31.7696967 70.1368171,31.8668172 C70.1368171,31.9531465 70.1472172,32.0394759 70.2096173,32.0394759 C70.2512175,32.0394759 70.2720175,31.98552 70.2824175,31.8776083 C70.2928176,31.726532 70.2928176,31.4783351 70.3240177,31.1438089 C70.3552178,30.7877003 70.4072179,30.6042504 70.4072179,30.5395034 C70.4072179,30.4747564 70.3864178,30.453174 70.3552178,30.453174 C70.3136176,30.453174 70.2824175,30.4963387 70.2304174,30.5610857 C70.1264171,30.6905798 69.9912167,30.7229533 69.7104159,30.7445356 C69.4712152,30.7661179 68.1920115,30.7661179 68.0568111,30.7661179 C68.004811,30.7661179 67.9944109,30.7337444 67.9944109,30.6582063 L67.9944109,27.6798436 C67.9944109,27.6043055 68.015211,27.571932 68.0568111,27.571932 C68.1712115,27.571932 69.3048147,27.5827231 69.4816152,27.6043055 C69.9392166,27.6474701 70.1576172,27.7553818 70.2304174,28.0035787 C70.2616175,28.0899081 70.2824175,28.2194021 70.2824175,28.3596873 C70.2824175,28.4460166 70.3032176,28.4999725 70.3656178,28.4999725 C70.4072179,28.4999725 70.438418,28.4244343 70.448818,28.3165226 C70.4696181,28.0359522 70.4800181,27.83092 70.4904181,27.6690525 C70.5112182,27.3668997 70.5736184,27.2374057 70.5736184,27.1618675 C70.5736184,27.1079117 70.5632184,27.064747 70.5320183,27.064747 C70.5008182,27.064747 70.4800181,27.0755382 70.4176179,27.1079117 C70.3552178,27.1402852 70.1680172,27.1618675 69.9392166,27.1726587 C69.7000159,27.1834499 67.6304099,27.1834499 67.5576097,27.1834499 C66.9024078,27.1510764 66.621607,27.1510764 66.3824063,27.1510764 C66.268006,27.1510764 66.2160058,27.1726587 66.2160058,27.2374057 C66.2160058,27.2805704 66.278406,27.2913616 66.3512062,27.3021527 C66.4448065,27.3129439 66.5800069,27.3129439 66.6528071,27.3345262 C66.9960081,27.4100644 67.0792083,27.5827231 67.1000084,27.9496229 C67.1208084,28.2949403 67.1208084,28.597093 67.1208084,30.2805153 L67.1208084,32.1797611 Z M74.916222,33.4423278 C74.916222,33.6149865 74.916222,34.0682156 74.8850219,34.5214447 C74.8642219,34.8343886 74.7706216,35.0717943 74.562621,35.114959 C74.4690207,35.1365413 74.3442204,35.1581237 74.2506201,35.1581237 C74.1882199,35.1581237 74.1674199,35.1904972 74.1674199,35.2228707 C74.1674199,35.2876177 74.21942,35.3092001 74.3338203,35.3092001 C74.6458212,35.3092001 75.3010231,35.2768265 75.3530233,35.2768265 C75.4050234,35.2768265 76.0602253,35.3092001 76.632227,35.3092001 C76.7466273,35.3092001 76.7986275,35.2768265 76.7986275,35.2228707 C76.7986275,35.1904972 76.7778274,35.1581237 76.7154272,35.1581237 C76.6218269,35.1581237 76.3930263,35.1365413 76.2474259,35.114959 C75.935425,35.0717943 75.8418247,34.8343886 75.8210246,34.5214447 C75.7898245,34.0682156 75.7898245,33.6149865 75.7898245,33.4423278 L75.7898245,32.5142873 C75.7898245,32.1581787 75.7898245,31.8236525 75.945825,31.4351704 C76.1330255,30.9711502 77.5890297,28.4352255 77.9322307,28.0035787 C78.1610314,27.7122171 78.2754317,27.5827231 78.4834323,27.4532291 C78.6498328,27.3453174 78.8474334,27.3021527 78.9618337,27.3021527 C79.0450339,27.3021527 79.0970341,27.2697792 79.0970341,27.2158234 C79.0970341,27.1726587 79.0346339,27.1510764 78.9618337,27.1510764 C78.7642331,27.1510764 78.015431,27.1834499 77.9530308,27.1834499 C77.8698306,27.1834499 77.5370296,27.1510764 77.2666288,27.1510764 C77.1626285,27.1510764 77.1002283,27.1726587 77.1002283,27.2158234 C77.1002283,27.2697792 77.1626285,27.2913616 77.2562288,27.3237351 C77.3810291,27.3561086 77.4226293,27.4748114 77.4226293,27.6258878 C77.4226293,27.766173 77.3810291,27.9496229 77.2458288,28.1762374 C77.0378282,28.532346 75.7170243,30.895612 75.5194238,31.3488411 C75.3322232,31.0358972 73.7722187,28.2517756 73.6058182,27.9388317 C73.522618,27.7769642 73.4706179,27.6474701 73.4706179,27.5179761 C73.4706179,27.4316468 73.522618,27.3668997 73.6058182,27.3237351 C73.6994185,27.2805704 73.7618187,27.2697792 73.7618187,27.2266145 C73.7618187,27.1834499 73.7410186,27.1510764 73.6266183,27.1510764 C73.2210171,27.1510764 72.825816,27.1834499 72.7530158,27.1834499 C72.7010156,27.1834499 71.9210134,27.1510764 71.7234128,27.1510764 C71.6298125,27.1510764 71.5882124,27.1834499 71.5882124,27.2266145 C71.5882124,27.2805704 71.6402126,27.3021527 71.6922127,27.3021527 C71.785813,27.3021527 71.9834136,27.3668997 72.139414,27.4748114 C72.3266146,27.6043055 72.5866153,27.8740847 72.8466161,28.2733579 C73.2106171,28.8344987 74.6042211,31.2085559 74.6770213,31.3812146 C74.8122217,31.6941585 74.916222,31.9315642 74.916222,32.5142873 L74.916222,33.4423278 Z M81.2493914,35.4602764 C81.810993,35.4602764 82.3725947,35.3307824 82.8197959,35.0070473 C83.537398,34.47828 83.7037985,33.6581512 83.7037985,33.2157133 C83.7037985,32.3524198 83.4125977,31.6833673 82.1853941,30.6797886 L81.8941933,30.4423829 C80.8957904,29.6330452 80.6253896,29.2445631 80.6253896,28.6294665 C80.6253896,27.8417112 81.1869912,27.3776909 81.9045933,27.3776909 C82.8613961,27.3776909 83.1421969,27.83092 83.2045971,27.9496229 C83.2669972,28.0683257 83.3293974,28.3596873 83.3397974,28.4891813 C83.3501975,28.5755107 83.3605975,28.6294665 83.4229977,28.6294665 C83.4749978,28.6294665 83.4957979,28.5539283 83.4957979,28.3812696 C83.4957979,27.6474701 83.537398,27.2913616 83.537398,27.2374057 C83.537398,27.1834499 83.516598,27.1618675 83.4333977,27.1618675 C83.3501975,27.1618675 83.2669972,27.1510764 83.0693967,27.1079117 C82.8093959,27.0431647 82.507795,27 82.1021939,27 C80.7813901,27 79.9493877,27.7877553 79.9493877,28.9424104 C79.9493877,29.6762099 80.1989884,30.3452624 81.3013916,31.2840941 L81.7693929,31.6833673 C82.6637955,32.4495403 82.9653964,32.881187 82.9653964,33.6257777 C82.9653964,34.3164125 82.476595,35.0610032 81.4781921,35.0610032 C80.7813901,35.0610032 80.0949881,34.7588504 79.9389876,33.9603039 C79.9077875,33.8092276 79.9077875,33.6581512 79.9077875,33.5610307 C79.9077875,33.4747013 79.8973875,33.4423278 79.8349873,33.4423278 C79.7829872,33.4423278 79.7621871,33.4962837 79.7517871,33.6149865 C79.7413871,33.7876452 79.6997869,34.219292 79.6997869,34.7588504 C79.6997869,35.050212 79.710187,35.0933767 79.8557874,35.1689149 C80.2821886,35.3847382 80.76059,35.4602764 81.2493914,35.4602764 L81.2493914,35.4602764 Z M92.5429262,32.1258052 C92.5949264,32.1258052 92.6157264,32.1473876 92.6365265,32.1905522 L93.6037293,34.8451798 C93.6661295,35.0178385 93.6037293,35.114959 93.5413291,35.1365413 C93.499729,35.1473325 93.4685289,35.1689149 93.4685289,35.2120795 C93.4685289,35.2768265 93.5829292,35.2768265 93.7805298,35.2876177 C94.4981319,35.3092001 95.2573341,35.3092001 95.4133345,35.3092001 C95.5277348,35.3092001 95.6213351,35.2876177 95.6213351,35.2228707 C95.6213351,35.1689149 95.569335,35.1581237 95.5069348,35.1581237 C95.4237345,35.1581237 95.2573341,35.1473325 95.1013336,35.0933767 C94.882933,35.0286297 94.5813321,34.855971 94.206931,33.8955569 C93.5725292,32.2552993 91.9397245,27.7985465 91.783724,27.3884821 C91.6589237,27.0539558 91.6173236,27 91.5549234,27 C91.4925232,27 91.4509231,27.064747 91.3261227,27.4208556 L88.9653159,34.1221715 C88.7781154,34.6617299 88.5701148,35.0717943 88.0917134,35.1365413 C88.0085131,35.1473325 87.9149129,35.1581237 87.8421127,35.1581237 C87.7485124,35.1581237 87.6965122,35.179706 87.6965122,35.2228707 C87.6965122,35.2876177 87.7589124,35.3092001 87.8941128,35.3092001 C88.3829142,35.3092001 88.9549159,35.2768265 89.0693162,35.2768265 C89.1837165,35.2768265 89.5997177,35.3092001 89.8493185,35.3092001 C89.9429187,35.3092001 90.036519,35.2876177 90.036519,35.2228707 C90.036519,35.179706 90.0053189,35.1581237 89.9013186,35.1581237 L89.8077183,35.1581237 C89.6309178,35.1581237 89.4333173,35.0610032 89.4333173,34.8451798 C89.4333173,34.6509387 89.4853174,34.3919507 89.5789177,34.1221715 L90.2029195,32.2121346 C90.2237195,32.1581787 90.2549196,32.1258052 90.3069198,32.1258052 L92.5429262,32.1258052 Z M90.4213201,31.7373231 C90.39012,31.7373231 90.36932,31.7157408 90.39012,31.661785 L91.3053227,28.7481694 C91.3573228,28.5863018 91.409323,28.5863018 91.4613231,28.7481694 L92.449326,31.661785 C92.459726,31.7049496 92.459726,31.7373231 92.4077258,31.7373231 L90.4213201,31.7373231 Z M97.8735327,27.6150966 C98.310334,27.6258878 98.7471352,27.6258878 99.1839365,27.636679 C100.182339,27.6582613 100.43194,27.9064582 100.46314,28.2301933 C100.46314,28.2733579 100.47354,28.3057314 100.47354,28.3488961 C100.48394,28.4999725 100.50474,28.532346 100.55674,28.532346 C100.598341,28.532346 100.629541,28.4891813 100.629541,28.3920608 C100.629541,28.2733579 100.660741,27.5287673 100.660741,27.2050322 C100.660741,27.1402852 100.660741,27.0755382 100.608741,27.0755382 C100.567141,27.0755382 100.47354,27.1079117 100.31754,27.129494 C100.151139,27.1618675 99.9119386,27.1834499 99.5791376,27.1834499 L95.6791264,27.1834499 C95.554326,27.1834499 95.1591249,27.1618675 94.857524,27.129494 C94.5767232,27.1079117 94.4727229,27 94.3999227,27 C94.3583226,27 94.3167225,27.1402852 94.2959224,27.2050322 C94.2751223,27.2913616 94.0671217,28.2194021 94.0671217,28.3273138 C94.0671217,28.3920608 94.0879218,28.4244343 94.1191219,28.4244343 C94.160722,28.4244343 94.1919221,28.402852 94.2231222,28.3165226 C94.2543223,28.2409844 94.2855224,28.1654462 94.3999227,27.9819964 C94.5663232,27.7230083 94.8159239,27.6474701 95.4607258,27.636679 C95.9703272,27.6258878 96.4903287,27.6258878 96.9999302,27.6150966 L96.9999302,32.1797611 C96.9999302,33.2157133 96.9999302,34.0682156 96.9479301,34.5214447 C96.9063299,34.8343886 96.8543298,35.0717943 96.6463292,35.114959 C96.5527289,35.1365413 96.4279286,35.1581237 96.3343283,35.1581237 C96.2719281,35.1581237 96.251128,35.1904972 96.251128,35.2228707 C96.251128,35.2876177 96.3031282,35.3092001 96.4175285,35.3092001 C96.7295294,35.3092001 97.3847313,35.2768265 97.4367315,35.2768265 C97.4887316,35.2768265 98.1439335,35.3092001 98.7159352,35.3092001 C98.8303355,35.3092001 98.8823356,35.2768265 98.8823356,35.2228707 C98.8823356,35.1904972 98.8615356,35.1581237 98.7991354,35.1581237 C98.7055351,35.1581237 98.4767345,35.1365413 98.331134,35.114959 C98.0191331,35.0717943 97.956733,34.8343886 97.9255329,34.5214447 C97.8735327,34.0682156 97.8735327,33.2157133 97.8735327,32.1797611 L97.8735327,27.6150966 Z M107.103702,30.2805153 C107.103702,28.597093 107.103702,28.2949403 107.124502,27.9496229 C107.145302,27.571932 107.228502,27.3884821 107.530103,27.3345262 C107.654903,27.3129439 107.800504,27.3021527 107.873304,27.3021527 C107.914904,27.3021527 107.956504,27.2805704 107.956504,27.2374057 C107.956504,27.1726587 107.904504,27.1510764 107.790104,27.1510764 C107.478103,27.1510764 106.7189,27.1834499 106.6669,27.1834499 C106.6149,27.1834499 105.959698,27.1510764 105.491697,27.1510764 C105.377297,27.1510764 105.325296,27.1726587 105.325296,27.2374057 C105.325296,27.2805704 105.366897,27.3021527 105.408497,27.3021527 C105.502097,27.3021527 105.678897,27.3129439 105.762098,27.3345262 C106.105299,27.4100644 106.188499,27.5827231 106.209299,27.9496229 C106.230099,28.2949403 106.230099,28.597093 106.230099,30.2805153 L106.230099,32.1797611 C106.230099,33.2157133 106.230099,34.0682156 106.178099,34.5214447 C106.136499,34.8343886 106.084499,35.0717943 105.876498,35.114959 C105.782898,35.1365413 105.658097,35.1581237 105.564497,35.1581237 C105.502097,35.1581237 105.481297,35.1904972 105.481297,35.2228707 C105.481297,35.2876177 105.533297,35.3092001 105.647697,35.3092001 C106.032498,35.3092001 106.344499,35.2768265 106.6669,35.2768265 C107.675703,35.2768265 108.559706,35.3415736 109.454108,35.3415736 C110.00531,35.3415736 110.03651,35.2984089 110.10931,35.050212 C110.192511,34.7372681 110.265311,34.089798 110.265311,33.9710951 C110.265311,33.8523922 110.254911,33.8092276 110.202911,33.8092276 C110.14051,33.8092276 110.11971,33.8631834 110.10931,33.9495128 C110.07811,34.154545 109.97411,34.4243242 109.838909,34.5969829 C109.589309,34.9099268 109.131707,34.920718 108.580506,34.920718 C107.769304,34.920718 107.498903,34.8451798 107.332502,34.6725211 C107.145302,34.47828 107.103702,33.7876452 107.103702,32.2013434 L107.103702,30.2805153 Z M116.062879,32.1258052 C116.114879,32.1258052 116.135679,32.1473876 116.156479,32.1905522 L117.123682,34.8451798 C117.186082,35.0178385 117.123682,35.114959 117.061281,35.1365413 C117.019681,35.1473325 116.988481,35.1689149 116.988481,35.2120795 C116.988481,35.2768265 117.102882,35.2768265 117.300482,35.2876177 C118.018084,35.3092001 118.777286,35.3092001 118.933287,35.3092001 C119.047687,35.3092001 119.141287,35.2876177 119.141287,35.2228707 C119.141287,35.1689149 119.089287,35.1581237 119.026887,35.1581237 C118.943687,35.1581237 118.777286,35.1473325 118.621286,35.0933767 C118.402885,35.0286297 118.101284,34.855971 117.726883,33.8955569 C117.092482,32.2552993 115.459677,27.7985465 115.303676,27.3884821 C115.178876,27.0539558 115.137276,27 115.074876,27 C115.012476,27 114.970875,27.064747 114.846075,27.4208556 L112.485268,34.1221715 C112.298068,34.6617299 112.090067,35.0717943 111.611666,35.1365413 C111.528465,35.1473325 111.434865,35.1581237 111.362065,35.1581237 C111.268465,35.1581237 111.216465,35.179706 111.216465,35.2228707 C111.216465,35.2876177 111.278865,35.3092001 111.414065,35.3092001 C111.902867,35.3092001 112.474868,35.2768265 112.589269,35.2768265 C112.703669,35.2768265 113.11967,35.3092001 113.369271,35.3092001 C113.462871,35.3092001 113.556471,35.2876177 113.556471,35.2228707 C113.556471,35.179706 113.525271,35.1581237 113.421271,35.1581237 L113.327671,35.1581237 C113.15087,35.1581237 112.95327,35.0610032 112.95327,34.8451798 C112.95327,34.6509387 113.00527,34.3919507 113.09887,34.1221715 L113.722872,32.2121346 C113.743672,32.1581787 113.774872,32.1258052 113.826872,32.1258052 L116.062879,32.1258052 Z M113.941272,31.7373231 C113.910072,31.7373231 113.889272,31.7157408 113.910072,31.661785 L114.825275,28.7481694 C114.877275,28.5863018 114.929275,28.5863018 114.981275,28.7481694 L115.969278,31.661785 C115.979678,31.7049496 115.979678,31.7373231 115.927678,31.7373231 L113.941272,31.7373231 Z M120.717483,34.6077741 C120.925484,35.3415736 120.977484,35.4602764 121.081484,35.4602764 C121.185484,35.4602764 121.258285,35.3415736 121.424685,34.8883445 C121.799086,33.8847658 123.22389,29.9351979 123.608691,28.8668722 L125.657497,34.8991356 C125.803098,35.3199912 125.865498,35.4602764 125.969498,35.4602764 C126.083899,35.4602764 126.135899,35.3307824 126.4063,34.5322359 C126.811901,33.323625 127.862304,29.8920333 128.319905,28.5215548 C128.517506,27.9280405 128.683906,27.4748114 128.995907,27.3561086 C129.110307,27.3129439 129.307908,27.3021527 129.349508,27.3021527 C129.411908,27.3021527 129.443108,27.2697792 129.443108,27.2158234 C129.443108,27.1726587 129.391108,27.1510764 129.297508,27.1510764 C128.975107,27.1510764 128.527906,27.1834499 128.455105,27.1834499 C128.361505,27.1834499 127.924704,27.1510764 127.394302,27.1510764 C127.269502,27.1510764 127.217502,27.1726587 127.217502,27.2266145 C127.217502,27.2697792 127.259102,27.3021527 127.311102,27.3021527 C127.789504,27.3021527 127.903904,27.4316468 127.903904,27.6258878 C127.903904,27.766173 127.893504,27.9172494 127.789504,28.3165226 C127.425502,29.6977922 126.4687,32.8272312 126.167099,33.8847658 L124.076693,27.701426 C123.951892,27.3345262 123.889492,27.194241 123.816692,27.194241 C123.754292,27.194241 123.712692,27.2481969 123.556691,27.6906348 L121.341485,33.8739746 C121.175084,33.2696691 120.093481,29.3093101 119.937481,28.6186753 C119.833481,28.1438639 119.73988,27.766173 119.73988,27.6258878 C119.73988,27.4856026 119.81268,27.3992732 119.875081,27.3668997 C119.999881,27.3021527 120.197482,27.3021527 120.280682,27.3021527 C120.332682,27.3021527 120.384682,27.2913616 120.384682,27.2266145 C120.384682,27.1834499 120.343082,27.1510764 120.197482,27.1510764 C119.67748,27.1510764 119.219879,27.1834499 119.126279,27.1834499 C119.011878,27.1834499 118.439877,27.1510764 117.899075,27.1510764 C117.795075,27.1510764 117.732674,27.1726587 117.732674,27.2266145 C117.732674,27.2913616 117.774275,27.3021527 117.826275,27.3021527 C117.899075,27.3021527 118.159076,27.3129439 118.294276,27.3668997 C118.564677,27.4748114 118.699877,27.636679 118.866278,28.2086109 L120.717483,34.6077741 Z" id="ATTORNEYS-AT-LAW-Copy"></path>
            </g>
        </g>
    </g>
</svg>